<svg width="25" height="25" viewBox="0 0 25 25" fill="none" xmlns="http://www.w3.org/2000/svg">
<path d="M12.3856 9.76291C15.0733 9.76291 17.2522 7.57741 17.2522 4.88146C17.2522 2.1855 15.0733 0 12.3856 0C9.69788 0 7.51904 2.1855 7.51904 4.88146C7.51904 7.57741 9.69788 9.76291 12.3856 9.76291Z" fill="black"/>
<path d="M24.439 21.0551C23.9342 18.7497 22.7766 16.6394 21.1054 14.9777C20.6998 14.5694 20.2602 14.1965 19.7914 13.8631C17.6567 12.2569 15.0546 11.3993 12.3861 11.4224C9.12321 11.4056 5.98604 12.6836 3.65876 14.9777C1.98751 16.6394 0.829977 18.7497 0.325168 21.0551C0.237424 21.4628 0.242164 21.885 0.339036 22.2906C0.435909 22.6962 0.622436 23.0747 0.884823 23.3982C1.15656 23.7287 1.49874 23.9938 1.88617 24.174C2.2736 24.3543 2.69641 24.445 3.12344 24.4396H21.6488C22.0771 24.4399 22.5 24.3435 22.8861 24.1576C23.2722 23.9717 23.6117 23.701 23.8793 23.3657C24.137 23.0459 24.3208 22.6729 24.4176 22.2734C24.5144 21.8739 24.5217 21.4578 24.439 21.0551Z" fill="black"/>
</svg>
