<svg width="24" height="24" viewBox="0 0 24 24" fill="none" xmlns="http://www.w3.org/2000/svg">
<g clip-path="url(#clip0_133_43)">
<path d="M20.5087 2.96475C19.2022 1.536 17.46 0.75 15.6022 0.75C13.9965 0.75 12.4762 1.338 11.25 2.42025C10.0238 1.338 8.5035 0.75 6.89775 0.75C5.04 0.75 3.29775 1.536 1.99125 2.96475C-0.66375 5.86725 -0.66375 10.5893 1.99125 13.4918L10.6957 23.007C10.8383 23.1615 11.0393 23.25 11.25 23.25C11.4607 23.25 11.6617 23.1615 11.8043 23.0062L20.5087 13.491C23.1637 10.5893 23.1637 5.86725 20.5087 2.96475ZM19.4002 12.4792L11.25 21.3885L3.099 12.4792C0.95475 10.1355 0.95475 6.321 3.099 3.97725C4.11825 2.86275 5.46675 2.25 6.89775 2.25C8.32875 2.25 9.67725 2.86275 10.6957 3.9765C10.98 4.287 11.5192 4.287 11.8043 3.9765C12.8228 2.86275 14.1712 2.25 15.6022 2.25C17.0332 2.25 18.3825 2.86275 19.401 3.9765C21.5452 6.321 21.5452 10.1355 19.4002 12.4792Z" fill="black"/>
<path d="M18 9.75H16.125L14.1 7.05C13.944 6.84225 13.6943 6.7305 13.4325 6.753C13.1737 6.77625 12.9457 6.93225 12.8287 7.16475L10.3718 12.0795L8.85 10.05C8.70825 9.861 8.48625 9.75 8.25 9.75H6C5.586 9.75 5.25 10.086 5.25 10.5C5.25 10.914 5.586 11.25 6 11.25H7.875L9.9 13.95C10.0425 14.1398 10.2653 14.25 10.5 14.25C10.5225 14.25 10.545 14.2493 10.5675 14.247C10.8263 14.2238 11.0543 14.0678 11.1713 13.8353L13.6283 8.9205L15.15 10.95C15.291 11.139 15.5138 11.25 15.75 11.25H18C18.414 11.25 18.75 10.914 18.75 10.5C18.75 10.086 18.414 9.75 18 9.75Z" fill="black"/>
</g>
<defs>
<clipPath id="clip0_133_43">
<rect width="24" height="24" fill="white"/>
</clipPath>
</defs>
</svg>
