<svg width="24" height="24" viewBox="0 0 24 24" fill="none" xmlns="http://www.w3.org/2000/svg">
<g clip-path="url(#clip0_133_36)">
<path d="M10.2188 5.15625H10.9453V5.88281C10.9456 6.1003 11.0321 6.3088 11.1859 6.46259C11.3396 6.61637 11.5481 6.70288 11.7656 6.70312H12.2344C12.4519 6.70288 12.6604 6.61637 12.8141 6.46259C12.9679 6.3088 13.0544 6.1003 13.0547 5.88281V5.15625H13.7812C13.9987 5.156 14.2072 5.0695 14.361 4.91571C14.5148 4.76193 14.6013 4.55342 14.6016 4.33594V3.86719C14.6013 3.6497 14.5148 3.4412 14.361 3.28741C14.2072 3.13363 13.9987 3.04712 13.7812 3.04688H13.0547V2.32031C13.0544 2.10283 12.9679 1.89432 12.8141 1.74054C12.6604 1.58675 12.4519 1.50025 12.2344 1.5H11.7656C11.5481 1.50025 11.3396 1.58675 11.1859 1.74054C11.0321 1.89432 10.9456 2.10283 10.9453 2.32031V3.04688H10.2188C10.0013 3.04712 9.79276 3.13363 9.63898 3.28741C9.48519 3.4412 9.39869 3.6497 9.39844 3.86719V4.33594C9.39869 4.55342 9.48519 4.76193 9.63898 4.91571C9.79276 5.0695 10.0013 5.156 10.2188 5.15625ZM10.1016 3.86719C10.1016 3.83612 10.114 3.80633 10.1359 3.78436C10.1579 3.7624 10.1877 3.75004 10.2188 3.75H11.2969C11.3901 3.75 11.4795 3.71296 11.5455 3.64703C11.6114 3.5811 11.6484 3.49168 11.6484 3.39844V2.32031C11.6485 2.28924 11.6608 2.25946 11.6828 2.23749C11.7048 2.21552 11.7346 2.20316 11.7656 2.20312H12.2344C12.2654 2.20316 12.2952 2.21552 12.3172 2.23749C12.3392 2.25946 12.3515 2.28924 12.3516 2.32031V3.39844C12.3516 3.49168 12.3886 3.5811 12.4545 3.64703C12.5205 3.71296 12.6099 3.75 12.7031 3.75H13.7812C13.8123 3.75004 13.8421 3.7624 13.8641 3.78436C13.886 3.80633 13.8984 3.83612 13.8984 3.86719V4.33594C13.8984 4.36701 13.886 4.39679 13.8641 4.41876C13.8421 4.44073 13.8123 4.45309 13.7812 4.45312H12.7031C12.6099 4.45312 12.5205 4.49016 12.4545 4.5561C12.3886 4.62203 12.3516 4.71145 12.3516 4.80469V5.88281C12.3515 5.91388 12.3392 5.94367 12.3172 5.96564C12.2952 5.9876 12.2654 5.99996 12.2344 6H11.7656C11.7346 5.99996 11.7048 5.9876 11.6828 5.96564C11.6608 5.94367 11.6485 5.91388 11.6484 5.88281V4.80469C11.6484 4.71145 11.6114 4.62203 11.5455 4.5561C11.4795 4.49016 11.3901 4.45312 11.2969 4.45312H10.2188C10.1877 4.45309 10.1579 4.44073 10.1359 4.41876C10.114 4.39679 10.1016 4.36701 10.1016 4.33594V3.86719ZM22.2422 6.5625H18.375V6.21094C18.3745 5.7449 18.1891 5.29809 17.8596 4.96855C17.53 4.63901 17.0832 4.45365 16.6172 4.45312H16.0373C16.0472 4.3372 16.0524 4.22002 16.0524 4.10156C16.0524 1.83994 14.2345 0 12 0C9.76552 0 7.94756 1.83994 7.94756 4.10156C7.94756 4.22002 7.95286 4.3372 7.96261 4.45312H7.38281C6.91677 4.45365 6.46997 4.63901 6.14043 4.96855C5.81089 5.29809 5.62552 5.7449 5.625 6.21094V6.5625H1.75781C1.29177 6.56302 0.844968 6.74839 0.515427 7.07793C0.185886 7.40747 0.000521091 7.85427 0 8.32031L0 22.2422C0.000521091 22.7082 0.185886 23.155 0.515427 23.4846C0.844968 23.8141 1.29177 23.9995 1.75781 24H22.2422C22.7082 23.9995 23.155 23.8141 23.4846 23.4846C23.8141 23.155 23.9995 22.7082 24 22.2422V8.32031C23.9995 7.85427 23.8141 7.40747 23.4846 7.07793C23.155 6.74839 22.7082 6.56302 22.2422 6.5625ZM5.625 16.125H2.8125V14.8594H5.625V16.125ZM5.625 12.0469H2.8125V10.7812H5.625V12.0469ZM5.625 10.0781H2.74219C2.57441 10.0783 2.41356 10.145 2.29493 10.2637C2.17629 10.3823 2.10956 10.5432 2.10938 10.7109V12.1172C2.10956 12.285 2.17629 12.4458 2.29493 12.5644C2.41356 12.6831 2.57441 12.7498 2.74219 12.75H5.625V14.1562H2.74219C2.57441 14.1564 2.41356 14.2232 2.29493 14.3418C2.17629 14.4604 2.10956 14.6213 2.10938 14.7891V16.1953C2.10956 16.3631 2.17629 16.5239 2.29493 16.6426C2.41356 16.7612 2.57441 16.8279 2.74219 16.8281H5.625V23.2969H1.75781C1.47819 23.2966 1.2101 23.1853 1.01238 22.9876C0.814653 22.7899 0.703435 22.5218 0.703125 22.2422V8.32031C0.703435 8.04069 0.814653 7.7726 1.01238 7.57488C1.2101 7.37715 1.47819 7.26593 1.75781 7.26562H5.625V10.0781ZM12 0.703125C13.8468 0.703125 15.3493 2.22764 15.3493 4.10156C15.3493 5.97548 13.8468 7.5 12 7.5C10.1532 7.5 8.65069 5.97548 8.65069 4.10156C8.65069 2.22764 10.1532 0.703125 12 0.703125ZM13.5938 23.2969H10.4062V19.2891C10.4063 19.1959 10.4434 19.1065 10.5093 19.0406C10.5752 18.9747 10.6646 18.9376 10.7578 18.9375H13.2422C13.3354 18.9376 13.4248 18.9747 13.4907 19.0406C13.5566 19.1065 13.5937 19.1959 13.5938 19.2891V23.2969ZM17.6719 23.2969H14.2969V19.2891C14.2966 19.0094 14.1853 18.7414 13.9876 18.5436C13.7899 18.3459 13.5218 18.2347 13.2422 18.2344H10.7578C10.4782 18.2347 10.2101 18.3459 10.0124 18.5436C9.81465 18.7414 9.70343 19.0094 9.70312 19.2891V23.2969H6.32812V6.21094C6.32843 5.93131 6.43965 5.66323 6.63738 5.4655C6.8351 5.26778 7.10319 5.15656 7.38281 5.15625H8.08364C8.5447 6.90844 10.1257 8.20312 12 8.20312C13.8743 8.20312 15.4553 6.90844 15.9164 5.15625H16.6172C16.8968 5.15656 17.1649 5.26778 17.3626 5.4655C17.5603 5.66323 17.6716 5.93131 17.6719 6.21094V23.2969ZM18.375 10.7812H21.1875V12.0469H18.375V10.7812ZM18.375 14.8594H21.1875V16.125H18.375V14.8594ZM23.2969 22.2422C23.2966 22.5218 23.1853 22.7899 22.9876 22.9876C22.7899 23.1853 22.5218 23.2966 22.2422 23.2969H18.375V16.8281H21.2578C21.4256 16.8279 21.5864 16.7612 21.7051 16.6426C21.8237 16.5239 21.8904 16.3631 21.8906 16.1953V14.7891C21.8904 14.6213 21.8237 14.4604 21.7051 14.3418C21.5864 14.2232 21.4256 14.1564 21.2578 14.1562H18.375V12.75H21.2578C21.4256 12.7498 21.5864 12.6831 21.7051 12.5644C21.8237 12.4458 21.8904 12.285 21.8906 12.1172V10.7109C21.8904 10.5432 21.8237 10.3823 21.7051 10.2637C21.5864 10.145 21.4256 10.0783 21.2578 10.0781H18.375V7.26562H22.2422C22.5218 7.26593 22.7899 7.37715 22.9876 7.57488C23.1853 7.7726 23.2966 8.04069 23.2969 8.32031V22.2422ZM15.6328 10.0781H12.9844C12.8166 10.0783 12.6557 10.145 12.5371 10.2637C12.4185 10.3823 12.3517 10.5432 12.3516 10.7109V12.1172C12.3517 12.285 12.4185 12.4458 12.5371 12.5644C12.6557 12.6831 12.8166 12.7498 12.9844 12.75H15.6328C15.8006 12.7498 15.9614 12.6831 16.0801 12.5644C16.1987 12.4458 16.2654 12.285 16.2656 12.1172V10.7109C16.2654 10.5432 16.1987 10.3823 16.0801 10.2637C15.9614 10.145 15.8006 10.0783 15.6328 10.0781ZM15.5625 12.0469H13.0547V10.7812H15.5625V12.0469ZM15.6328 14.1562H12.9844C12.8166 14.1564 12.6557 14.2232 12.5371 14.3418C12.4185 14.4604 12.3517 14.6213 12.3516 14.7891V16.1953C12.3517 16.3631 12.4185 16.5239 12.5371 16.6426C12.6557 16.7612 12.8166 16.8279 12.9844 16.8281H15.6328C15.8006 16.8279 15.9614 16.7612 16.0801 16.6426C16.1987 16.5239 16.2654 16.3631 16.2656 16.1953V14.7891C16.2654 14.6213 16.1987 14.4604 16.0801 14.3418C15.9614 14.2232 15.8006 14.1564 15.6328 14.1562ZM15.5625 16.125H13.0547V14.8594H15.5625V16.125ZM11.0156 14.1562H8.36719C8.19941 14.1564 8.03856 14.2232 7.91993 14.3418C7.80129 14.4604 7.73456 14.6213 7.73438 14.7891V16.1953C7.73456 16.3631 7.80129 16.5239 7.91993 16.6426C8.03856 16.7612 8.19941 16.8279 8.36719 16.8281H11.0156C11.1834 16.8279 11.3442 16.7612 11.4629 16.6426C11.5815 16.5239 11.6483 16.3631 11.6484 16.1953V14.7891C11.6483 14.6213 11.5815 14.4604 11.4629 14.3418C11.3442 14.2232 11.1834 14.1564 11.0156 14.1562ZM10.9453 16.125H8.4375V14.8594H10.9453V16.125ZM11.0156 10.0781H8.36719C8.19941 10.0783 8.03856 10.145 7.91993 10.2637C7.80129 10.3823 7.73456 10.5432 7.73438 10.7109V12.1172C7.73456 12.285 7.80129 12.4458 7.91993 12.5644C8.03856 12.6831 8.19941 12.7498 8.36719 12.75H11.0156C11.1834 12.7498 11.3442 12.6831 11.4629 12.5644C11.5815 12.4458 11.6483 12.285 11.6484 12.1172V10.7109C11.6483 10.5432 11.5815 10.3823 11.4629 10.2637C11.3442 10.145 11.1834 10.0783 11.0156 10.0781ZM10.9453 12.0469H8.4375V10.7812H10.9453V12.0469Z" fill="black"/>
</g>
<defs>
<clipPath id="clip0_133_36">
<rect width="24" height="24" fill="white"/>
</clipPath>
</defs>
</svg>
