<svg width="79" height="77" viewBox="0 0 79 77" fill="none" xmlns="http://www.w3.org/2000/svg">
<g clip-path="url(#clip0_49_21)">
<path d="M49.4573 47.0823L45.6719 43.3927C45.3427 43.0719 44.849 43.0719 44.5198 43.3927C44.3552 43.5531 44.0261 44.1146 44.5198 44.5156L48.3052 48.2052C48.4698 48.3656 48.6344 48.4458 48.8813 48.4458C49.6219 48.4458 49.9511 47.5635 49.4573 47.0823ZM34.3979 32.4844L30.6125 28.7948C30.2834 28.474 29.7896 28.474 29.4604 28.7948C29.1313 29.1156 29.1313 29.5969 29.4604 29.9177C29.8719 30.3188 28.0615 28.5542 33.2459 33.6073C33.575 33.9281 34.0688 33.9281 34.3979 33.6073C34.5625 33.4469 34.8917 32.8854 34.3979 32.4844Z" fill="#0C53B1"/>
<path d="M67.726 11.6302C67.6438 11.4698 67.2323 11.0687 67.0677 10.9885C59.9083 4.17083 50.1979 0 39.5 0C17.6927 0 0 17.2448 0 38.5C0 48.9271 4.27917 58.4719 11.274 65.3698C11.5208 65.6104 11.5208 65.6906 11.6854 65.7708C18.8448 72.749 28.6375 77 39.5 77C61.3073 77 79 59.7552 79 38.5C79 28.0729 74.7208 18.6083 67.726 11.6302ZM39.6646 75.3958C18.7625 75.476 1.64583 58.9531 1.64583 38.5C1.64583 19.4104 16.5406 3.68958 35.6323 1.76458C58.0156 -0.401042 77.3542 16.6833 77.3542 38.5C77.3542 58.5521 60.7313 75.2354 39.6646 75.3958Z" fill="#0C53B1"/>
<path d="M72.3344 38.5C72.3344 21.0948 57.9333 6.49689 39.5 6.49689C21.3959 6.49689 6.66564 20.774 6.58335 38.5C6.50106 56.2261 21.2313 70.5031 39.4177 70.5834C57.6865 70.5031 72.3344 56.0656 72.3344 38.5ZM53.7365 65.5302C42.9563 70.9042 30.0365 69.7813 20.5729 62.6427L31.9292 51.574L45.7542 65.049C46.9063 66.1719 48.7167 66.0917 49.7865 65.049L66.7386 48.5261C67.8084 47.4031 67.8084 45.6386 66.7386 44.5958L52.9136 31.1208L64.2698 20.0521C76.0375 35.0511 71.1 56.7875 53.7365 65.5302ZM58.4271 14.3573C53.4896 19.1698 55.9584 16.7636 47.0709 25.4261L33.2459 11.9511C32.1761 10.9083 30.3656 10.8281 29.2136 11.9511L12.2615 28.474C11.1094 29.5969 11.1094 31.3615 12.2615 32.4042L26.0865 45.8792L14.7302 56.9479C10.6979 51.8146 8.31148 45.4781 8.31148 38.5C8.31148 21.7365 22.3011 8.10105 39.5 8.10105C46.2479 8.10105 52.9136 10.1865 58.4271 14.3573ZM48.5521 63.9261C48.0583 64.4073 47.3177 64.4073 46.824 63.9261L33.0813 50.4511L35.2208 48.3656C45.9188 58.7927 45.5073 58.4719 46.0011 58.4719C46.2479 58.4719 46.4125 58.3917 46.5771 58.2313C47.4823 57.349 48.9636 57.349 49.8688 58.2313C50.1979 58.5521 50.6917 58.5521 51.0209 58.2313C60.4844 49.0073 59.9084 49.649 60.0729 49.3281C60.2375 49.0073 60.1552 48.6865 59.9084 48.4459C59.0031 47.5636 59.0031 46.1198 59.9084 45.3177C60.0729 45.1573 60.4021 44.5958 59.9084 44.1146L49.7042 34.3292L51.8438 32.2438L65.5865 45.7188C66.0802 46.2 66.0802 46.9219 65.5865 47.4031C60.5667 52.2156 64.0229 48.9271 48.5521 63.9261ZM46.0011 56.7073L36.3729 47.2427L48.4698 35.4521L58.0979 44.8365C57.275 46.1198 57.275 47.8042 58.0979 49.0073L50.2802 56.6271C49.1281 55.9052 47.4 55.825 46.0011 56.7073ZM13.4136 31.2813C12.9198 30.8 12.9198 30.0781 13.4136 29.5969L30.3656 13.074C30.8594 12.5927 31.6 12.5927 32.0938 13.074L45.9188 26.549L43.7792 28.6344L33.6573 18.6886C33.3281 18.3677 32.8344 18.3677 32.5052 18.6886C31.9292 19.25 31.1886 19.4104 30.4479 19.3302C29.5427 19.1698 29.3781 18.6886 28.9667 18.5281C28.8844 18.5281 28.3906 18.3677 28.0615 18.6886L19.174 27.2708C18.9271 27.5115 18.8448 27.8323 19.0094 28.1531C19.0917 28.474 19.4209 28.5542 19.6677 29.1958C20.3261 30.7198 19.0094 31.7625 19.174 31.6021C18.8448 31.9229 18.8448 32.4844 19.174 32.725C25.0167 38.4198 22.7125 36.174 29.2959 42.6708L27.1563 44.7563C15.3063 33.1261 18.3511 36.0938 13.4136 31.2813ZM20.8198 32.1636C21.6427 30.8802 21.6427 29.1958 20.8198 27.9125L28.6375 20.2927C29.9542 21.175 31.6823 21.0948 32.999 20.2927L42.6271 29.6771L30.4479 41.5479L20.8198 32.1636ZM15.7177 58.2313C27.4854 46.7615 50.6917 24.1427 59.6615 15.4C60.8959 16.4427 62.1302 17.6458 63.2 18.849C50.0334 31.6823 33.6573 47.6438 19.2563 61.6802C18.0219 60.5573 16.7875 59.3542 15.7177 58.2313Z" fill="#0C53B1"/>
</g>
<defs>
<clipPath id="clip0_49_21">
<rect width="79" height="77" fill="white"/>
</clipPath>
</defs>
</svg>
