<svg width="45" height="45" viewBox="0 0 45 45" fill="none" xmlns="http://www.w3.org/2000/svg">
<circle cx="22.5" cy="22.5" r="22.5" fill="#D9D9D9"/>
<path d="M22.1033 20.9891C24.3431 20.9891 26.1588 19.2007 26.1588 16.9946C26.1588 14.7884 24.3431 13 22.1033 13C19.8635 13 18.0479 14.7884 18.0479 16.9946C18.0479 19.2007 19.8635 20.9891 22.1033 20.9891Z" fill="black"/>
<path d="M32.1469 30.2303C31.7262 28.3437 30.7616 26.6168 29.3689 25.257C29.0309 24.9229 28.6646 24.6178 28.2739 24.3449C26.495 23.0306 24.3266 22.3288 22.1029 22.3477C19.3838 22.334 16.7695 23.3798 14.8301 25.257C13.4373 26.6168 12.4727 28.3437 12.0521 30.2303C11.9789 30.5639 11.9829 30.9094 12.0636 31.2413C12.1443 31.5732 12.2998 31.8829 12.5184 32.1477C12.7449 32.4181 13.03 32.6351 13.3529 32.7825C13.6758 32.93 14.0281 33.0043 14.384 32.9998H29.8218C30.1787 33.0001 30.5311 32.9212 30.8528 32.7691C31.1746 32.6169 31.4575 32.3955 31.6805 32.121C31.8953 31.8594 32.0485 31.5541 32.1291 31.2272C32.2097 30.9003 32.2158 30.5598 32.1469 30.2303Z" fill="black"/>
</svg>
