<svg width="63" height="65" viewBox="0 0 63 65" fill="none" xmlns="http://www.w3.org/2000/svg">
<path d="M22.3125 24.375H27.5625C28.2873 24.375 28.875 23.7687 28.875 23.0208C28.875 22.273 28.2873 21.6667 27.5625 21.6667H22.3125C21.5877 21.6667 21 22.273 21 23.0208C21 23.7687 21.5877 24.375 22.3125 24.375ZM32.8125 43.3333H17.0625C16.3377 43.3333 15.75 43.9397 15.75 44.6875C15.75 45.4353 16.3377 46.0417 17.0625 46.0417H32.8125C33.5373 46.0417 34.125 45.4353 34.125 44.6875C34.125 43.9397 33.5373 43.3333 32.8125 43.3333ZM32.8125 32.5H17.0625C16.3377 32.5 15.75 33.1063 15.75 33.8542C15.75 34.602 16.3377 35.2083 17.0625 35.2083H32.8125C33.5373 35.2083 34.125 34.602 34.125 33.8542C34.125 33.1063 33.5373 32.5 32.8125 32.5ZM56.4375 32.5H44.625V6.77082C44.6252 6.53378 44.5649 6.30086 44.4504 6.09539C44.0892 5.44723 43.2872 5.22391 42.6588 5.5965L34.125 10.6429L25.5912 5.5965C25.1858 5.35847 24.6892 5.35847 24.2838 5.5965L15.75 10.6429L7.21619 5.5965C7.01704 5.47831 6.79129 5.41632 6.56154 5.41632C5.83688 5.41682 5.24968 6.02315 5.25 6.77082V52.8125C5.25336 56.5505 8.18951 59.5798 11.8125 59.5833H48.5625C48.7186 59.5833 48.8637 59.5433 49.0025 59.4917C49.2928 59.5255 49.576 59.583 49.875 59.5833C54.2223 59.5784 57.7452 55.9437 57.75 51.4583V33.8542C57.75 33.8537 57.75 33.8548 57.75 33.8542C57.7495 33.1068 57.162 32.4995 56.4375 32.5ZM11.8125 56.875C9.63883 56.8725 7.8774 55.0552 7.875 52.8125V9.10623L15.0707 13.3618C15.4941 13.5998 16.0059 13.5998 16.4293 13.3618L24.9375 8.33129L33.4457 13.3618C33.8691 13.5998 34.3809 13.5998 34.8043 13.3618L42 9.10623V33.8542V36.5625V51.4583C42.0022 53.5489 42.7904 55.4354 44.0484 56.875H11.8125ZM55.125 51.4583C55.125 54.4498 52.7745 56.875 49.875 56.875C46.9755 56.875 44.625 54.4498 44.625 51.4583V36.5625V35.2083H55.125V51.4583Z" fill="#0C53B1"/>
</svg>
