<svg width="42" height="37" viewBox="0 0 42 37" fill="none" xmlns="http://www.w3.org/2000/svg">
<path d="M38.5284 6.19165H3.47156C1.91671 6.19165 0.65625 7.30205 0.65625 8.67181V28.3338C0.65625 29.7036 1.91671 30.814 3.47156 30.814H38.5284C40.0833 30.814 41.3438 29.7036 41.3438 28.3338V8.67181C41.3438 7.30205 40.0833 6.19165 38.5284 6.19165Z" fill="#488FCC"/>
<path d="M20.8425 7.1167L1.37157 29.97C1.63489 30.2321 1.95807 30.4422 2.31995 30.5867C2.68184 30.7311 3.07427 30.8066 3.47157 30.8083H38.5284C38.9243 30.8076 39.3156 30.7331 39.6764 30.5896C40.0373 30.4462 40.3595 30.2369 40.6219 29.9758L20.8425 7.1167Z" fill="#3374BA"/>
<path d="M38.5284 6.19174H3.47157C3.09622 6.19115 2.72455 6.25685 2.37851 6.38494C2.03248 6.51303 1.71909 6.70093 1.45688 6.93752L15.8944 20.5119C16.1478 20.7476 16.453 20.9353 16.7915 21.0635C17.13 21.1917 17.4947 21.2578 17.8631 21.2577H24.6881C25.0597 21.2544 25.4264 21.1833 25.7653 21.049C26.1041 20.9147 26.4077 20.72 26.6569 20.4772L40.5563 6.93752C40.293 6.69899 39.9775 6.50993 39.629 6.38175C39.2805 6.25357 38.9061 6.18893 38.5284 6.19174Z" fill="#71B2E2"/>
</svg>
