<svg width="59" height="105" viewBox="0 0 59 105" fill="none" xmlns="http://www.w3.org/2000/svg">
<path d="M41.0833 104.761C43.2836 104.735 45.4954 104.7 47.6843 104.472C48.3683 104.402 49.1891 104.227 49.3716 103.709C49.5198 103.306 49.1664 102.868 48.6875 102.658C48.2087 102.447 47.6387 102.412 47.0914 102.395C42.7136 102.193 38.3244 102.228 33.9466 102.263C28.2805 102.307 22.603 102.36 16.9483 102.719C15.6828 102.798 14.1438 103.823 15.6942 104.595C17.0167 105.252 19.4678 104.91 20.9499 104.919C25.2365 104.936 29.5118 104.901 33.7984 104.857C36.2267 104.822 38.655 104.787 41.0833 104.761Z" fill="url(#paint0_linear_68_126)"/>
<path d="M41.0833 104.761C43.2836 104.735 45.4954 104.7 47.6843 104.472C48.3683 104.402 49.1891 104.227 49.3716 103.709C49.5198 103.306 49.1664 102.868 48.6875 102.658C48.2087 102.447 47.6387 102.412 47.0914 102.395C42.7136 102.193 38.3244 102.228 33.9466 102.263C28.2805 102.307 22.603 102.36 16.9483 102.719C15.6828 102.798 14.1438 103.823 15.6942 104.595C17.0167 105.252 19.4678 104.91 20.9499 104.919C25.2365 104.936 29.5118 104.901 33.7984 104.857C36.2267 104.822 38.655 104.787 41.0833 104.761Z" fill="url(#paint1_linear_68_126)"/>
<path d="M22.2154 62.6954C23.23 60.487 24.2447 55.8685 25.5786 53.7564C26.6502 52.0563 28.3147 56.3943 29.6942 54.8256C30.7088 53.66 31.8831 52.5558 33.3766 51.7496C34.8701 50.9433 36.7169 50.47 38.5296 50.6716C41.1632 50.9608 43.2495 52.6435 44.2528 54.5364C45.2674 56.4294 46.5899 55.9561 46.6925 57.998C47.3309 70.3724 46.3733 85.5511 41.8244 97.4259C41.414 98.4863 40.9352 99.5905 39.8977 100.362C38.8603 101.133 37.0932 101.431 35.9759 100.73C38.1534 89.8803 38.8261 82.4137 36.2154 71.6256C35.9075 70.3374 35.8505 68.1376 35.2121 67.8835C34.6991 67.6819 33.5476 67.717 32.8636 67.901C29.774 78.4262 27.2202 87.1461 24.1307 97.6625C23.8913 98.46 23.5379 99.3802 22.5461 99.6782C18.9777 100.747 19.1942 97.8816 19.0688 96.1727C18.8978 93.7014 18.7611 91.23 18.7041 88.7498C18.6015 83.8422 18.8408 78.8994 19.9353 74.0531C20.4939 71.389 21.0411 65.2281 22.2154 62.6954Z" fill="#A58C41"/>
<path d="M52.655 4.74114C52.5752 4.40812 52.5638 4.06634 52.6208 3.72455C52.6778 3.39153 52.883 3.00593 53.3048 2.95334C53.7152 2.90076 54.023 3.225 54.2054 3.51421C55.0263 4.85505 55.1403 6.40623 55.2429 7.90482C54.5931 8.04504 53.909 8.1064 53.2364 8.08011C53.2934 7.44912 53.1452 6.81812 52.826 6.25724C52.484 5.65255 51.9139 5.07416 52.0279 4.40812C52.1419 4.40812 52.2559 4.39935 52.3585 4.39935C52.4611 4.51328 52.5524 4.62722 52.655 4.74114Z" fill="#E8DBCE"/>
<path d="M43.5915 30.9446C41.7104 31.672 39.6697 31.8735 39.0198 29.9192C37.8912 26.5277 41.6192 23.6181 45.3244 22.3912C46.0198 22.1633 46.7266 21.9793 47.4221 21.7514C49.383 21.1029 51.1386 20.1214 52.5523 18.8945C54.2966 17.3784 54.4563 16.5546 54.1827 14.6353C54.1143 14.127 52.7804 7.85224 53.0768 7.79089C53.9204 7.61562 54.7527 7.44911 55.5963 7.27384C55.6647 7.25631 57.9904 14.1533 58.2983 14.7668C59.3357 16.8438 59.2787 18.6754 57.7511 20.6998C56.4628 22.4 54.5475 23.7583 52.655 25.0817C50.58 26.5277 48.5051 27.9824 46.4416 29.4284C45.7576 29.8929 44.6973 30.5151 43.5915 30.9446Z" fill="#1F375A"/>
<path d="M36.1241 100.958C37.5378 100.87 38.9515 100.914 40.3538 101.098C41.4254 101.711 42.6111 102.22 43.8538 102.605C44.2186 102.719 44.5947 102.824 44.857 103.043C45.1192 103.263 45.2332 103.631 44.9824 103.858C44.7658 104.06 44.3782 104.078 44.0361 104.086C41.4254 104.104 38.8261 103.937 36.2609 103.578C36.1127 103.56 35.9417 103.534 35.8277 103.447C35.7365 103.376 35.7023 103.28 35.6681 103.192C35.4173 102.439 35.5769 101.606 36.1241 100.958Z" fill="#736357"/>
<path d="M24.4841 100.853C23.0704 100.826 21.6567 100.94 20.2772 101.186C19.2512 101.852 18.1112 102.412 16.9027 102.859C16.5493 102.991 16.1844 103.114 15.9336 103.341C15.6828 103.569 15.603 103.946 15.8766 104.165C16.1046 104.358 16.4923 104.358 16.8343 104.349C19.4336 104.253 22.0215 103.964 24.5525 103.482C24.7007 103.455 24.8603 103.42 24.9743 103.333C25.0542 103.263 25.0883 103.166 25.1112 103.07C25.3164 102.299 25.0883 101.475 24.4841 100.853Z" fill="#736357"/>
<path d="M32.9548 22.9871C34.129 22.9783 35.2006 22.4525 36.0215 21.804C39.054 19.3852 38.9742 15.5993 38.6664 12.2428C38.6322 11.8835 38.598 11.5154 38.3358 11.2175C37.9368 10.7618 37.1388 10.6478 36.432 10.5865C33.3994 10.5865 30.4124 10.6917 27.3571 10.8056C27.0948 10.8143 26.8212 10.8319 26.6274 10.9546C26.4108 11.086 26.331 11.3051 26.2854 11.5154C26.0688 12.4794 26.4792 13.4873 26.4564 14.4776C26.4336 15.4854 26.4906 16.502 26.7186 17.501C27.1633 19.4378 28.3261 21.2431 30.515 22.3474C31.2447 22.7154 32.0883 22.9959 32.9548 22.9871Z" fill="#F0E5D4"/>
<path d="M35.0753 22.6279C34.3228 23.1975 33.1713 23.4079 32.1339 23.2413C31.0964 23.0748 30.23 22.3913 29.603 21.7428C30.4238 21.8041 31.4271 22.365 32.2251 22.5403C33.6844 22.8558 35.0981 22.5753 35.6567 21.6201C35.8505 21.9706 35.4287 22.3562 35.0753 22.6279Z" fill="#333333"/>
<path d="M38.1648 8.45699C40.0117 9.55245 40.0915 11.6382 39.9091 13.4348C39.8293 14.2147 39.6241 15.1262 38.7121 15.4767C38.7577 14.6792 38.0736 13.9781 37.4352 13.3559C36.9906 12.9265 36.5345 12.4883 35.8961 12.2341C33.9808 11.4805 31.9059 12.6811 29.9792 12.7775C28.7023 12.8476 28.2463 12.4007 27.7903 13.5049C27.4255 14.4075 27.3 15.4066 27.2886 16.3443C27.2886 16.467 27.2886 16.5897 27.2088 16.6949C27.129 16.8 26.9352 16.8526 26.8098 16.7737C26.7642 16.7387 26.73 16.6949 26.7072 16.6423C26.0346 15.3891 24.7805 14.0395 24.5411 12.7074C24.2447 11.0686 24.5297 9.33337 25.2821 7.7822C25.4303 7.47547 25.6926 7.13367 26.1144 7.14244C26.4108 7.1512 26.6388 7.34399 26.8782 7.48421C27.4255 7.81723 28.1665 7.89611 28.8619 7.85229C29.5574 7.80848 30.23 7.65949 30.914 7.57185C32.2479 7.4141 33.4678 7.65074 34.7788 7.69455C35.9417 7.74714 37.1843 7.87859 38.1648 8.45699Z" fill="#EFAB50"/>
<path d="M36.2495 23.7759C38.085 22.2773 39.8179 23.9512 40.4905 25.406C43.2381 31.2864 44.1501 37.5787 45.0394 43.801C45.1876 44.8 45.3244 45.7991 45.4726 46.7894C45.9856 50.3825 46.51 53.9668 47.0231 57.5599C47.0573 57.7702 41.7104 58.6466 41.2544 58.7343C38.4612 59.2689 35.5541 59.2864 32.7039 59.1462C29.1355 58.9622 25.5785 58.5327 21.9987 58.5415C20.4711 58.5415 18.9206 58.6291 17.4385 58.3311C18.0199 56.2454 18.0656 54.0895 18.1796 51.96C18.4532 46.8069 19.1486 41.6801 19.8441 36.5621C20.2317 33.6877 20.4483 30.743 20.9613 27.8948C21.2349 26.3349 22.1584 23.6094 24.1877 22.9346C26.3424 22.216 27.4026 24.1352 29.1469 24.6348C31.1534 25.2132 33.6046 25.3096 35.4287 24.3368C35.7821 24.1528 36.0215 23.96 36.2495 23.7759Z" fill="#1F375A"/>
<path d="M46.7723 56.3769C46.8521 56.3681 46.8863 56.333 46.8407 56.2629C46.5328 55.8423 46.054 55.0798 45.5524 54.1772C45.1762 49.7077 44.5947 45.2207 43.58 40.8213C42.326 35.3878 39.624 30.3487 38.0165 25.0116C37.5377 23.4429 35.098 23.5832 34.1974 24.6786C34.129 24.6874 34.0606 24.7049 33.9808 24.7136C33.2055 24.1878 32.2593 23.7496 31.0964 23.4342C29.7968 23.0748 28.4515 24.0038 28.4515 24.9766C28.4515 26.0195 28.4287 27.0623 28.3945 28.1052C26.1372 36.606 24.7805 45.247 24.3587 53.9143C24.3587 53.923 24.3587 53.9318 24.3587 53.9406C24.2332 54.3875 24.1079 54.8344 23.9711 55.2726C23.6861 55.9474 23.3896 56.7099 23.344 57.3058C23.3212 57.3672 23.3098 57.4197 23.287 57.4811C23.0476 58.2435 23.6062 58.9008 24.5297 59.1549C31.5981 61.1443 39.1453 60.82 45.9172 58.3399C46.0084 58.3049 46.0996 58.2698 46.168 58.226C46.225 58.2085 46.282 58.1909 46.3504 58.1646C46.453 58.1033 46.5556 58.042 46.6696 57.9806C46.909 57.7966 47.0572 57.5512 47.1028 57.297C47.1598 56.9903 47.0459 56.631 46.7723 56.3769Z" fill="#F0F0F0"/>
<path d="M11.6698 4.14523C11.7496 3.81221 11.761 3.47042 11.704 3.12864C11.647 2.79562 11.4418 2.41004 11.02 2.35746C10.6095 2.30488 10.3018 2.62912 10.1193 2.91832C9.29851 4.25916 9.18453 5.81035 9.08192 7.30894C9.73176 7.44916 10.4157 7.51049 11.0884 7.48419C11.0314 6.85321 11.1796 6.22223 11.4988 5.66136C11.8409 5.05666 12.4108 4.47827 12.2968 3.81223C12.1828 3.81223 12.0688 3.80346 11.9662 3.80346C11.8636 3.91739 11.7724 4.0313 11.6698 4.14523Z" fill="#E8DBCE"/>
<path d="M20.7333 30.3487C22.6144 31.0761 24.6551 31.2776 25.305 29.3233C26.4336 25.9318 22.7056 23.0222 19.0004 21.7953C18.305 21.5675 17.5982 21.3834 16.9028 21.1556C14.9418 20.507 13.1862 19.5255 11.7725 18.2986C10.0282 16.7825 9.86859 15.9587 10.1422 14.0394C10.2106 13.5311 11.5444 7.25635 11.248 7.19501C10.4044 7.01973 9.57219 6.85322 8.72855 6.67795C8.66014 6.66042 6.33436 13.5574 6.02654 14.1709C4.98909 16.2479 5.04614 18.0795 6.57382 20.1039C7.86208 21.8041 9.77735 23.1537 11.6698 24.4858C13.7448 25.9318 15.8197 27.3865 17.8832 28.8326C18.5672 29.297 19.6275 29.9193 20.7333 30.3487Z" fill="#1F375A"/>
<path d="M34.414 17.6501C35.6453 17.6764 36.8993 17.7202 38.0964 17.5099C38.5638 17.431 39.0426 17.2908 39.3163 16.9841C39.5101 16.765 39.5671 16.4845 39.5899 16.2216C39.6811 15.2313 39.4417 14.2235 38.9173 13.3121C38.8147 13.1368 38.7007 12.9615 38.4955 12.8476C38.3016 12.7337 38.0394 12.7074 37.8 12.6811C35.5313 12.5058 33.1713 12.7862 30.8912 12.83C29.6371 12.8563 28.5199 13.1105 27.2772 12.979C27.072 12.9615 26.8554 12.9352 26.6616 12.9966C26.4108 13.0754 26.2626 13.2682 26.1486 13.461C25.6584 14.3111 25.647 15.2488 25.7838 16.1603C25.875 16.7124 25.8522 17.5975 26.7072 17.7289C27.8245 17.9042 29.3522 17.6325 30.5036 17.6238C31.8147 17.615 33.1144 17.6238 34.414 17.6501Z" fill="#595959"/>
<path d="M34.3114 17.5011C35.4628 17.5274 36.6371 17.5712 37.7658 17.3696C38.199 17.2907 38.655 17.1593 38.9058 16.8788C39.0883 16.6685 39.1338 16.4144 39.1566 16.1602C39.2364 15.2313 39.0198 14.2848 38.5296 13.4347C38.4384 13.277 38.3244 13.1105 38.142 13.0053C37.9596 12.9001 37.7202 12.8738 37.4808 12.8563C35.3603 12.6898 33.1372 12.9527 31.0052 12.9965C29.831 13.0228 28.7935 13.2594 27.6192 13.1367C27.4254 13.1192 27.2202 13.1017 27.0492 13.1543C26.8098 13.2244 26.673 13.4084 26.5704 13.5924C26.1144 14.3899 26.103 15.2751 26.2284 16.1164C26.3082 16.6334 26.2854 17.466 27.0949 17.5887C28.1437 17.7552 29.5688 17.5011 30.6518 17.4835C31.8717 17.466 33.0915 17.4748 34.3114 17.5011Z" fill="#4A4A4A"/>
<path d="M28.5085 13.2594C27.9955 13.2857 27.4027 13.3295 27.0834 13.645C26.844 13.8904 26.8326 14.2146 26.8326 14.5214C26.8326 15.0559 26.8326 15.5905 26.8212 16.1164C26.8212 16.353 26.8212 16.6071 26.9695 16.8175C27.1405 17.0541 27.4711 17.2031 27.8131 17.2556C28.1551 17.317 28.5085 17.2995 28.8619 17.2819C29.4434 17.2556 30.0248 17.2293 30.5948 17.1943C31.0395 17.1768 31.5639 17.1154 31.7805 16.8175C31.9401 16.5984 31.8945 16.3092 32.0883 16.1076C32.2821 15.906 32.6583 15.8622 32.9889 15.8447C33.1371 16.0813 33.0459 16.3705 33.1827 16.6159C33.2967 16.8175 33.5475 16.9664 33.8212 17.0366C34.0948 17.1067 34.3912 17.1154 34.6762 17.1154C35.5084 17.1242 36.3521 17.1067 37.1843 17.0541C37.5948 17.0278 38.0622 16.9752 38.2788 16.7123C38.4042 16.5633 38.427 16.3793 38.4498 16.204C38.541 15.3539 38.6437 14.4951 38.3586 13.6713C38.3016 13.5136 38.2332 13.347 38.0736 13.2331C37.8342 13.0578 37.4808 13.0315 37.1502 13.0228C34.2544 12.9527 31.4043 13.128 28.5085 13.2594Z" fill="#707070"/>
<path d="M1.83109 2.06821C1.80829 2.04192 1.79692 2.01563 1.79692 1.98934C1.79692 1.95429 1.83112 1.91925 1.86532 1.89296C2.09333 1.70892 2.38974 1.57745 2.70895 1.49858C2.73176 1.48982 2.75455 1.48981 2.77735 1.48981C2.82296 1.49857 2.84578 1.52486 2.86858 1.54239C2.94838 1.63002 3.0282 1.71768 3.0966 1.80531C3.10801 1.82284 3.11935 1.83159 3.10795 1.84912C3.09655 1.86665 3.08517 1.86665 3.06237 1.87541C2.80016 1.98058 2.54937 2.09452 2.30996 2.21721C2.23016 2.26103 2.13889 2.33113 2.03629 2.29608C1.94508 2.25226 1.88809 2.12956 1.83109 2.06821Z" fill="#484849"/>
<path d="M7.59979 0.578407C7.57699 0.552115 7.56563 0.525801 7.56563 0.49951C7.56563 0.464455 7.59983 0.429413 7.63403 0.403122C7.86204 0.219085 8.15844 0.0876187 8.47766 0.0087455C8.50046 -1.81862e-05 8.52326 3.10651e-10 8.54606 3.10651e-10C8.59166 0.00876369 8.61449 0.0350526 8.63729 0.05258C8.71709 0.140217 8.79691 0.227843 8.86531 0.31548C8.87671 0.333007 8.88805 0.341787 8.87665 0.359314C8.86525 0.376842 8.85388 0.376841 8.83108 0.385604C8.56886 0.490769 8.31808 0.604683 8.07867 0.727374C7.99886 0.771193 7.9076 0.841299 7.805 0.806244C7.71379 0.77119 7.6568 0.639752 7.59979 0.578407Z" fill="#484849"/>
<path d="M2.42394 1.928C1.94512 2.19091 1.63727 2.59406 1.46626 3.01472C1.26105 3.52301 0.930473 3.89984 0.577054 4.37308C0.349042 4.67981 0.120995 4.99531 0.0411904 5.34586C-0.129818 6.00314 0.246401 6.71298 0.896235 7.15992C1.54607 7.60687 2.45812 7.80844 3.32457 7.76462C4.19101 7.72957 5.36529 7.46667 5.91252 6.93209C6.49395 6.37121 6.91579 5.7928 7.71384 5.38967C9.33272 4.56588 10.9744 5.36336 12.7187 5.10045C13.1291 5.03911 13.5395 4.9252 13.8131 4.68858C14.0639 4.47826 14.1779 4.19779 14.2235 3.92612C14.2805 3.57557 14.2349 3.22503 14.0753 2.89201C13.6877 2.04193 12.7187 1.45476 11.7839 0.91141C11.1568 0.543335 10.6323 0.122684 9.80009 0.0963933C9.05906 0.0701022 8.32947 0.359308 7.71384 0.64851C6.89299 1.04288 6.11774 1.41972 5.13729 1.50736C4.21384 1.595 3.24479 1.47229 2.42394 1.928Z" fill="#434244"/>
<path d="M9.50375 1.63885C9.26433 1.64762 8.97929 1.81413 8.97929 1.99817C8.97929 2.19097 9.23011 2.35747 9.48092 2.33994C9.97115 2.29612 10.1308 1.7703 9.61772 1.65637C9.59492 1.63885 9.54935 1.63885 9.50375 1.63885Z" fill="#98B99D"/>
<path d="M11.1112 1.28821C10.8604 1.27945 10.5867 1.42843 10.5867 1.62123C10.5867 1.81403 10.8376 1.98053 11.0884 1.963C11.5216 1.92795 11.6698 1.48975 11.2708 1.32324C11.2252 1.29695 11.1682 1.28821 11.1112 1.28821Z" fill="#AA6A64"/>
<path d="M2.59497 3.54928C2.20735 3.71579 1.92234 4.03129 1.88814 4.38184C1.85393 4.73239 2.07055 5.10046 2.45817 5.2845C2.68618 5.39843 2.97118 5.43348 3.2334 5.44224C3.39301 5.44224 3.56401 5.43349 3.72362 5.39843C4.22524 5.2845 4.63565 4.94271 4.70405 4.53958C4.84086 3.61939 3.49561 3.16368 2.59497 3.54928Z" fill="#505151"/>
<path opacity="0.71" d="M2.82294 4.36431C2.53792 4.4169 2.26433 4.46073 1.99072 4.57466C1.95652 4.58343 1.93371 4.60095 1.9109 4.62724C1.8995 4.65353 1.9109 4.67982 1.9109 4.70611C1.96791 4.85509 2.02495 5.00409 2.09335 5.15307C2.37837 5.10049 2.65197 5.03914 2.93699 4.98656C3.00539 5.16183 3.09657 5.32832 3.19918 5.48607C3.46139 5.42472 3.7122 5.37215 3.97441 5.31081C3.92881 5.10048 3.87182 4.8989 3.78062 4.69734C4.02003 4.66228 4.24804 4.62723 4.48745 4.58341C4.56725 4.57464 4.64704 4.55712 4.68124 4.50454C4.70404 4.46948 4.70405 4.41691 4.69265 4.38186C4.66985 4.26793 4.63564 4.15399 4.61284 4.04006C4.60144 4.01377 4.60146 3.97872 4.56726 3.96119C4.52166 3.92614 4.44187 3.94366 4.37347 3.95242C4.09986 4.01377 3.8148 4.07513 3.54118 4.13648C3.59818 4.12771 3.4044 3.62818 3.3588 3.58436C3.14219 3.34774 2.85714 3.4792 2.53792 3.55807C2.60633 3.82974 2.69753 4.11017 2.82294 4.36431Z" fill="#7D7E7F"/>
<path opacity="0.71" d="M7.85063 3.84726C7.81643 3.73333 7.77083 3.62817 7.71383 3.52301C7.38321 3.58436 7.06398 3.66324 6.76756 3.77716C6.80176 3.89986 6.85874 4.01379 6.94994 4.11019C7.07535 4.06637 7.21219 4.0576 7.33759 4.02255C7.52 3.98749 7.67962 3.91737 7.85063 3.84726Z" fill="#7D7E7F"/>
<path opacity="0.71" d="M9.24148 3.5405C9.20728 3.42657 9.16168 3.32141 9.10468 3.21625C8.77406 3.27759 8.45489 3.35647 8.15848 3.4704C8.19268 3.59309 8.24965 3.70703 8.34086 3.80343C8.46626 3.75961 8.6031 3.75085 8.72851 3.72456C8.91092 3.68074 9.08187 3.61061 9.24148 3.5405Z" fill="#7D7E7F"/>
<path opacity="0.71" d="M6.49396 4.1539C6.45976 4.03998 6.41416 3.93482 6.35716 3.82965C6.02654 3.891 5.7073 3.96988 5.41089 4.08381C5.44509 4.2065 5.50213 4.3204 5.59334 4.4168C5.71874 4.37298 5.85551 4.36424 5.98092 4.32919C6.16333 4.29413 6.32295 4.22401 6.49396 4.1539Z" fill="#7D7E7F"/>
<defs>
<linearGradient id="paint0_linear_68_126" x1="15.0495" y1="103.617" x2="49.4099" y2="103.617" gradientUnits="userSpaceOnUse">
<stop stop-color="#4D4D4D"/>
<stop offset="1"/>
</linearGradient>
<linearGradient id="paint1_linear_68_126" x1="15.0495" y1="103.617" x2="49.4099" y2="103.617" gradientUnits="userSpaceOnUse">
<stop/>
<stop offset="1"/>
</linearGradient>
</defs>
</svg>
