<svg width="42" height="38" viewBox="0 0 42 38" fill="none" xmlns="http://www.w3.org/2000/svg">
<g clip-path="url(#clip0_110_63)">
<path d="M21 34.0812L21.1313 33.9625C21.6563 33.3688 34.125 18.3469 34.125 11.875C34.125 5.34375 28.2188 0 21 0C13.7812 0 7.875 5.34375 7.875 11.875C7.875 18.3469 20.3438 33.3688 20.9344 33.9625L21 34.0812ZM13.1906 11.875C13.1906 8.01562 16.6687 4.80938 21 4.80938C25.2656 4.80938 28.8094 7.95625 28.8094 11.875C28.8094 15.7344 25.3312 18.9406 21 18.9406C16.7344 18.9406 13.1906 15.7937 13.1906 11.875Z" fill="#0171B9"/>
<path d="M25.9219 29.8657C25.9219 29.9251 25.8563 29.9251 25.8563 29.9845C25.7906 30.1032 25.6594 30.222 25.5938 30.3407C25.5938 30.4001 25.5281 30.4001 25.5281 30.4595C25.2656 30.8157 24.9375 31.2313 24.675 31.5282C24.675 31.5876 24.6094 31.5876 24.6094 31.647C24.5438 31.7657 24.4125 31.8845 24.3469 32.0032C24.3469 32.0626 24.2813 32.0626 24.2813 32.122C30.45 32.4188 33.075 33.4876 33.6656 33.9032C32.7469 34.5563 28.4156 35.7438 21.3281 35.7438H20.8031C13.7156 35.7438 9.31876 34.5563 8.46563 33.9032C9.05626 33.4876 11.7469 32.4188 17.85 32.122C17.85 32.0626 17.7844 32.0626 17.7844 32.0032C17.7188 31.8845 17.5875 31.7657 17.5219 31.647C17.5219 31.5876 17.4563 31.5876 17.4563 31.5282C17.1938 31.172 16.9313 30.8157 16.6031 30.4595C16.6031 30.4001 16.5375 30.4001 16.5375 30.3407L16.275 29.9845C16.275 29.9251 16.2094 29.9251 16.2094 29.8657C11.8125 30.1626 5.70938 31.1126 5.70938 33.8438C5.70938 36.9313 13.9125 38.0001 21 38.0001C28.0219 38.0001 36.2906 36.9313 36.2906 33.8438C36.2906 31.1126 30.2531 30.1626 25.9219 29.8657Z" fill="#2C3A45"/>
</g>
<defs>
<clipPath id="clip0_110_63">
<rect width="42" height="38" fill="white"/>
</clipPath>
</defs>
</svg>
