<svg width="48" height="48" viewBox="0 0 48 48" fill="none" xmlns="http://www.w3.org/2000/svg">
<path d="M32.916 43.991C27.769 43.991 20.587 41.231 13.678 34.322C4.828 25.472 2.785 16.172 4.632 11.277C5.953 7.77701 9.637 6.63301 11.715 6.26301C13.032 6.03101 14.361 6.70301 14.944 7.90501L18.171 14.537C18.75 15.727 18.471 17.18 17.491 18.07L14.747 20.563C14.856 21.449 15.537 24.186 19.676 28.324C23.799 32.448 26.531 33.138 27.44 33.251L29.93 30.51C30.82 29.531 32.275 29.251 33.463 29.829L40.095 33.056C41.297 33.64 41.972 34.969 41.737 36.285C41.367 38.363 40.223 42.047 36.724 43.368C35.65 43.773 34.364 43.991 32.916 43.991Z" fill="#0CA0F2"/>
<path d="M16.08 19.352L17.492 18.07C18.471 17.18 18.751 15.727 18.172 14.537L14.945 7.90496C14.361 6.70396 13.033 6.03096 11.716 6.26296C11.227 6.34996 10.645 6.48496 10.03 6.67896C11.414 11.235 13.466 15.498 16.08 19.352ZM40.095 33.056L33.463 29.829C32.275 29.25 30.819 29.531 29.93 30.51L28.648 31.921C32.502 34.535 36.765 36.588 41.32 37.972C41.513 37.357 41.649 36.775 41.736 36.286C41.971 34.969 41.297 33.641 40.094 33.057L40.095 33.056Z" fill="#0075D3"/>
<path d="M42.999 21.4101C42.521 21.4101 42.1 21.0681 42.015 20.5821C40.718 13.1481 34.852 7.28207 27.418 5.98507C26.874 5.89007 26.51 5.37207 26.605 4.82807C26.7 4.28407 27.21 3.92007 27.762 4.01507C36.024 5.45707 42.543 11.9771 43.986 20.2391C44.081 20.7831 43.716 21.3011 43.173 21.3961C43.115 21.4061 43.057 21.4111 43 21.4111L42.999 21.4101ZM36.799 22.7401C36.322 22.7401 35.9 22.3981 35.815 21.9121C34.949 16.9601 31.04 13.0511 26.087 12.1841C25.543 12.0891 25.18 11.5711 25.275 11.0271C25.37 10.4841 25.882 10.1151 26.433 10.2151C32.212 11.2261 36.774 15.7891 37.786 21.5681C37.881 22.1121 37.517 22.6301 36.973 22.7251C36.915 22.7351 36.856 22.7401 36.799 22.7401Z" fill="#47CAF0"/>
</svg>
