<svg width="65" height="65" viewBox="0 0 65 65" fill="none" xmlns="http://www.w3.org/2000/svg">
<g clip-path="url(#clip0_52_33)">
<path d="M63 29.6C61.6 27.2 60.2 24.7 58 22.8C58.2 22.7 58.3 22.6 58.4 22.5C60.4 20.8 61.5 18.1 61.2 15.5C60.1 6.00001 49.6 6.00001 45.8 11.9C43.9 14.8 43.7 19.6 47.7 22.6C45.4 24.2 43.6 26.3 42.5 28.8C41.7 28 40.9 27.3 40 26.6C42.9 24.2 44.4 20.7 44.4 17.9C44.4 14.6 42.1 9.20001 37.5 7.10001C32.1 4.70001 25.6 6.70001 22.5 11.9C20.9 14.6 20.6 18.2 21.6 21.6C22.3 23.7 23.6 25.5 25.2 26.9C24.4 27.5 23.6 28.1 22.8 28.8C21.8 27.1 20.7 25.5 19.4 24C18.9 23.5 18.4 22.9 17.8 22.5C20 20.4 21.4 17.7 20.9 14.7C20.3 11.4 17.2 8.40001 13.3 7.80001C8.40001 7.20001 4.10001 10.6 3.80001 15.2C3.30001 17.5 4.10001 20.2 5.90001 22C6.10001 22.2 6.30001 22.4 6.60001 22.6C4.40001 24.3 2.60001 26.3 1.50001 28.5C0.100012 31.2 -0.399988 34.2 0.100012 36.9C0.600012 39.9 2.40001 42.5 4.80001 44C6.40001 45 8.30001 45.6 10.5 45.7H11.4C13 45.7 14.5 45.5 15.9 45.3C16.1 47.2 17 49.1 17.8 50.8C18 51.2 18.2 51.6 18.3 51.9C19.3 54.2 21.6 55.9 25 57.1C27.6 58 30.3 58.4 33.1 58.4C35.3 58.4 37.5 58.1 39.7 57.5C41.4 57 42.9 56.2 44.2 55C46.1 53.3 48.4 50.5 48.8 47.1C48.9 46.5 48.9 45.9 48.9 45.3C49.5 45.6 50.2 45.6 50.6 45.6C51.3 45.6 52.1 45.7 52.9 45.7C54.8 45.7 56.8 45.5 58.6 44.8C61.3 43.7 63.5 41.5 64.4 38.7C65.3 36 65 32.8 63.6 30.4L63 29.6ZM46.7 12.5C50 7.40001 59.2 7.00001 60.2 15.6C60.5 17.8 59.5 20.2 57.8 21.7C56.1 23.2 53.6 23.8 51.3 23.3C46 22.1 44.1 16.6 46.7 12.5ZM22.6 21.4C21.6 18.3 21.9 15 23.4 12.6C26.2 7.80001 32.2 6.00001 37.2 8.30001C41.3 10.2 43.5 15.2 43.5 18.2C43.5 21.4 41.1 25.7 37.3 27.5C34.7 28.7 31.5 28.9 28.6 27.9C25.9 26.8 23.5 24.4 22.6 21.4ZM5.00001 15.1H4.90001C5.50001 11.2 9.10001 8.50001 13.2 9.00001C16.6 9.50001 19.4 12.2 19.9 15C20.3 17.6 19 20.1 17 21.9C16.4 22.5 15.9 22.8 15.4 23.1C14.8 23.4 14.1 23.6 13.2 23.7C10.7 23.9 8.30001 23.1 6.70001 21.5C5.00001 19.8 4.30001 17.2 5.00001 15.1ZM10.6 44.9C8.50001 44.8 6.80001 44.3 5.30001 43.4C5.20001 43.3 5.00001 43.1 4.80001 43L3.00001 41.2C2.60001 40.7 2.20001 40.1 1.90001 39.4L3.30001 40.8C3.30001 40.8 3.40001 40.9 3.50001 40.9C3.60001 40.9 3.60001 40.9 3.70001 40.8C3.80001 40.7 3.80001 40.5 3.70001 40.4L1.50001 38.2L1.20001 37L2.40001 38.2C2.40001 38.2 2.50001 38.3 2.60001 38.3C2.70001 38.3 2.70001 38.3 2.80001 38.2C2.90001 38.1 2.90001 37.9 2.80001 37.8L1.10001 36.1C1.10001 35.8 1.10001 35.5 1.00001 35.2L2.00001 36.2C2.00001 36.2 2.10001 36.3 2.20001 36.3C2.30001 36.3 2.30001 36.3 2.40001 36.2C2.50001 36.1 2.50001 35.9 2.40001 35.8L1.00001 34.6C1.00001 34.3 1.00001 33.9 1.10001 33.6L2.30001 34.8C2.30001 34.8 2.40001 34.9 2.50001 34.9C2.60001 34.9 2.60001 34.9 2.70001 34.8C2.80001 34.7 2.80001 34.5 2.70001 34.4L1.20001 33C1.30001 32.7 1.30001 32.4 1.40001 32.1L2.60001 33.3C2.60001 33.3 2.70001 33.4 2.80001 33.4C2.90001 33.4 2.90001 33.4 3.00001 33.3C3.00001 33.1 3.00001 33 2.90001 32.9L1.50001 31.5C1.60001 31.1 1.70001 30.8 1.90001 30.4L3.20001 31.7C3.20001 31.7 3.30001 31.8 3.40001 31.8C3.50001 31.8 3.50001 31.8 3.60001 31.7C3.70001 31.6 3.70001 31.4 3.60001 31.3L2.20001 29.9C2.30001 29.7 2.40001 29.4 2.50001 29.2C2.50001 29.2 2.50001 29.1 2.60001 29.1L4.00001 30.5C4.00001 30.5 4.10001 30.6 4.20001 30.6C4.30001 30.6 4.30001 30.6 4.40001 30.5C4.50001 30.4 4.50001 30.2 4.40001 30.1L2.90001 28.6C3.00001 28.4 3.20001 28.1 3.30001 27.9L4.60001 29.2C4.60001 29.2 4.70001 29.3 4.80001 29.3C4.90001 29.3 4.90001 29.3 5.00001 29.2C5.10001 29.1 5.10001 28.9 5.00001 28.8L3.60001 27.4C3.80001 27.1 4.00001 26.9 4.20001 26.6L5.70001 28.1C5.70001 28.1 5.80001 28.2 5.90001 28.2C6.00001 28.2 6.00001 28.2 6.10001 28.1C6.00001 28 6.00001 27.9 5.90001 27.8L4.40001 26.3C4.50001 26.2 4.60001 26 4.70001 25.9L6.10001 27.3C6.10001 27.3 6.20001 27.4 6.30001 27.4C6.40001 27.4 6.40001 27.4 6.50001 27.3C6.60001 27.2 6.60001 27 6.50001 26.9L5.10001 25.5L5.60001 25L6.80001 26.2C6.80001 26.2 6.90001 26.3 7.00001 26.3C7.10001 26.3 7.10001 26.3 7.20001 26.2C7.30001 26.1 7.30001 25.9 7.20001 25.8L6.00001 24.7C6.20001 24.5 6.50001 24.3 6.70001 24.1L7.90001 25.3C7.90001 25.3 8.00001 25.4 8.10001 25.4C8.20001 25.4 8.20001 25.4 8.30001 25.3C8.40001 25.2 8.40001 25 8.30001 24.9L7.00001 23.8C7.10001 23.7 7.30001 23.6 7.40001 23.5L8.80001 24.9C8.80001 24.9 8.90001 25 9.00001 25C9.10001 25 9.10001 25 9.20001 24.9C9.30001 24.8 9.30001 24.6 9.20001 24.5L8.60001 23.9C9.00001 24.1 9.40001 24.2 9.80001 24.3L11.2 25.7C11.2 25.7 11.3 25.8 11.4 25.8C11.5 25.8 11.5 25.8 11.6 25.7C11.7 25.6 11.7 25.4 11.6 25.3L10.7 24.4C11 24.5 11.4 24.5 11.7 24.5L13.1 25.9C13.1 25.9 13.2 26 13.3 26C13.4 26 13.4 26 13.5 25.9C13.6 25.8 13.6 25.6 13.5 25.5L12.5 24.5H13.4C13.6 24.5 13.7 24.5 13.9 24.4L15.2 25.7C15.2 25.7 15.3 25.8 15.4 25.8C15.5 25.8 15.5 25.8 15.6 25.7C15.7 25.6 15.7 25.4 15.6 25.3L14.5 24.2C14.8 24.1 15.1 24.1 15.3 24L16.3 25C16.3 25 16.4 25.1 16.5 25.1C16.6 25.1 16.6 25.1 16.7 25C16.8 24.9 16.8 24.7 16.7 24.6L15.8 23.7C15.9 23.7 15.9 23.7 16 23.6C16.1 23.5 16.2 23.5 16.4 23.4L17.4 24.4C17.4 24.4 17.5 24.5 17.6 24.5C17.7 24.5 17.7 24.5 17.8 24.4C17.9 24.3 17.9 24.1 17.8 24L16.9 23.1C17 23 17.1 23 17.2 22.9C17.9 23.3 18.4 23.8 18.9 24.4C20.2 25.9 21.4 27.6 22.4 29.3C21.6 30.1 20.9 30.9 20.3 31.8C18.1 34.9 16.8 38.6 16.3 43.3V44.2C14.3 44.8 12.5 45 10.6 44.9ZM47.9 47.4C47.5 50.5 45.4 53.1 43.6 54.7C42.5 55.8 41.1 56.5 39.5 56.9C35 58.1 30 58 25.5 56.4C24.2 55.9 23 55.4 22.1 54.8C22.1 54.7 22.1 54.7 22 54.6L19.6 52.2C19.5 52.1 19.5 52 19.4 51.8C19.2 51.4 19 51 18.9 50.6C18.9 50.6 18.9 50.5 18.8 50.5L19.7 51.4C19.7 51.4 19.8 51.5 19.9 51.5C20 51.5 20 51.5 20.1 51.4C20.2 51.3 20.2 51.1 20.1 51L18.3 49.2C18 48.6 17.8 48 17.6 47.4L19.1 48.9C19.1 48.9 19.2 49 19.3 49C19.4 49 19.4 49 19.5 48.9C19.6 48.8 19.6 48.6 19.5 48.5L17.4 46.4C17.1 46 17 45.5 17 45.1L18.5 46.6C18.5 46.6 18.6 46.7 18.7 46.7C18.8 46.7 18.8 46.7 18.9 46.6C19 46.5 19 46.3 18.9 46.2L17 44.3V43.7C17 43.5 17 43.4 17.1 43.2L19 45.1C19 45.1 19.1 45.2 19.2 45.2C19.3 45.2 19.3 45.2 19.4 45.1C19.5 45 19.5 44.8 19.4 44.7L17.3 42.6C17.4 42.2 17.4 41.9 17.5 41.5L19.5 43.5C19.5 43.5 19.6 43.6 19.7 43.6C19.8 43.6 19.8 43.6 19.9 43.5C20 43.4 20 43.2 19.9 43.1L17.4 41C17.5 40.7 17.5 40.5 17.6 40.2L19.3 41.9C19.3 41.9 19.4 42 19.5 42C19.6 42 19.6 42 19.7 41.9C19.8 41.8 19.8 41.6 19.7 41.5L17.8 39.6C17.9 39.3 17.9 39.1 18 38.8L19.3 40.1C19.3 40.1 19.4 40.2 19.5 40.2C19.6 40.2 19.6 40.2 19.7 40.1C19.8 40 19.8 39.8 19.7 39.7L18.2 38.2L18.5 37.3L20 38.8C20 38.8 20.1 38.9 20.2 38.9C20.3 38.9 20.3 38.9 20.4 38.8C20.5 38.7 20.5 38.5 20.4 38.4L18.8 36.8C18.9 36.4 19.1 36.1 19.2 35.8L20.7 37.3C20.7 37.3 20.8 37.4 20.9 37.4C21 37.4 21 37.4 21.1 37.3C21.2 37.2 21.2 37 21.1 36.9L19.5 35.3C19.7 34.9 19.9 34.5 20.1 34.2L21.5 35.6C21.5 35.6 21.6 35.7 21.7 35.7C21.8 35.7 21.8 35.7 21.9 35.6C22 35.5 22 35.3 21.9 35.2L20.4 33.7L21 32.8L22.3 34.1C22.3 34.1 22.4 34.2 22.5 34.2C22.6 34.2 22.6 34.2 22.7 34.1C22.8 34 22.8 33.8 22.7 33.7L21 32.5C21.2 32.2 21.4 32 21.6 31.7L22.8 32.9C22.8 32.9 22.9 33 23 33C23.1 33 23.1 33 23.2 32.9C23.3 32.8 23.3 32.6 23.2 32.5L21.9 31.2L22.5 30.6L23.8 31.9C23.8 31.9 23.9 32 24 32C24.1 32 24.1 32 24.2 31.9C24.3 31.8 24.3 31.6 24.2 31.5L22.9 30.2L23.5 29.6L24.6 30.7C24.6 30.7 24.7 30.8 24.8 30.8C24.9 30.8 24.9 30.8 25 30.7C25.1 30.6 25.1 30.4 25 30.3L23.9 29.2C24.2 29 24.4 28.7 24.7 28.5L25.8 29.6C25.8 29.6 25.9 29.7 26 29.7C26.1 29.7 26.1 29.7 26.2 29.6C26.3 29.5 26.3 29.3 26.2 29.2L25.1 28.1C25.2 28 25.4 27.9 25.5 27.8L26.5 28.8C26.5 28.8 26.6 28.9 26.7 28.9C26.8 28.9 26.8 28.9 26.9 28.8C27 28.7 27 28.5 26.9 28.4L25.9 27.4C26 27.3 26.1 27.3 26.1 27.2C26.6 27.5 27.1 27.8 27.7 28L29.9 30.2C29.9 30.2 30 30.3 30.1 30.3C30.2 30.3 30.2 30.3 30.3 30.2C30.4 30.1 30.4 29.9 30.3 29.8L28.8 28.3C29 28.3 29.1 28.4 29.3 28.4L30.9 30C30.9 30 31 30.1 31.1 30.1C31.2 30.1 31.2 30.1 31.3 30C31.4 29.9 31.4 29.7 31.3 29.6L30.3 28.6C30.4 28.6 30.5 28.6 30.6 28.7L32.3 30.4C32.3 30.4 32.4 30.5 32.5 30.5C32.6 30.5 32.6 30.5 32.7 30.4C32.8 30.3 32.8 30.1 32.7 30L31.4 28.7H32.1L33 29.6C33 29.6 33.1 29.7 33.2 29.7C33.3 29.7 33.3 29.7 33.4 29.6C33.5 29.5 33.5 29.3 33.4 29.2L32.8 28.6L34 29.8C34 29.8 34.1 29.9 34.2 29.9C34.3 29.9 34.3 29.9 34.4 29.8C34.5 29.7 34.5 29.5 34.4 29.4L33.5 28.5C33.8 28.5 34.2 28.4 34.5 28.4L35.7 29.6C35.7 29.6 35.8 29.7 35.9 29.7C36 29.7 36 29.7 36.1 29.6C36.2 29.5 36.2 29.3 36.1 29.2L35.1 28.2C35.3 28.2 35.6 28.1 35.8 28L36.8 29C36.8 29 36.9 29.1 37 29.1C37.1 29.1 37.1 29.1 37.2 29C37.3 28.9 37.3 28.7 37.2 28.6L36.4 27.8L37.3 27.5L38.1 28.3C38.1 28.3 38.2 28.4 38.3 28.4C38.4 28.4 38.4 28.4 38.5 28.3C38.6 28.2 38.6 28 38.5 27.9L37.8 27.2C37.8 27.2 37.9 27.2 37.9 27.1C38 27.1 38.1 27 38.2 26.9L38.8 27.5C38.8 27.5 38.9 27.6 39 27.6C39.1 27.6 39.1 27.6 39.2 27.5C39.3 27.4 39.3 27.2 39.2 27.1L38.7 26.6C38.8 26.6 38.9 26.5 38.9 26.5L39.6 27.2C39.6 27.2 39.7 27.3 39.8 27.3C39.9 27.3 39.9 27.3 40 27.2C40.1 27.1 40.1 26.9 40 26.8L39.3 26.1C39.3 26.1 39.4 26.1 39.4 26C42.4 28.2 44.8 31.2 46.3 34.6C47.8 39.6 48.4 43.5 47.9 47.4ZM63.5 38.8C62.7 41.3 60.7 43.3 58.3 44.3C55.9 45.2 53.2 45.1 50.7 45.1C50.1 45.1 49.3 45 49 44.6C49 41.5 48.3 38.5 47 35.7C46 33.5 44.7 31.6 43.2 29.8C43.3 29.6 43.4 29.4 43.4 29.2L44.6 30.4C44.6 30.4 44.7 30.5 44.8 30.5C44.9 30.5 44.9 30.5 45 30.4C45.1 30.3 45.1 30.1 45 30L43.7 28.7C43.8 28.6 43.8 28.4 43.9 28.3L45 29.4C45 29.4 45.1 29.5 45.2 29.5C45.3 29.5 45.3 29.5 45.4 29.4C45.5 29.3 45.5 29.1 45.4 29L44.2 27.8C44.3 27.6 44.5 27.3 44.6 27.1L45.7 28.2C45.7 28.2 45.8 28.3 45.9 28.3C46 28.3 46 28.3 46.1 28.2C46.2 28.1 46.2 27.9 46.1 27.8L45 26.7C45.1 26.5 45.3 26.3 45.4 26.2L46.4 27.2C46.4 27.2 46.5 27.3 46.6 27.3C46.7 27.3 46.7 27.3 46.8 27.2C46.9 27.1 46.9 26.9 46.8 26.8L45.8 25.8C46 25.6 46.1 25.4 46.3 25.2L47.3 26.2C47.3 26.2 47.4 26.3 47.5 26.3C47.6 26.3 47.6 26.3 47.7 26.2C47.8 26.1 47.8 25.9 47.7 25.8L46.7 24.8L47.3 24.2L48.6 25.5C48.6 25.5 48.7 25.6 48.8 25.6C48.9 25.6 48.9 25.6 49 25.5C49.1 25.4 49.1 25.2 49 25.1L47.6 24C47.8 23.9 48 23.7 48.2 23.6L49.5 24.9C49.5 24.9 49.6 25 49.7 25C49.8 25 49.8 25 49.9 24.9C50 24.8 50 24.6 49.9 24.5L48.6 23.2C49.2 23.6 49.9 23.9 50.7 24.1L52.2 25.6C52.2 25.6 52.3 25.7 52.4 25.7C52.5 25.7 52.5 25.7 52.6 25.6C52.7 25.5 52.7 25.3 52.6 25.2L51.6 24.2C51.9 24.3 52.3 24.3 52.6 24.3L53.8 25.5C53.8 25.5 53.9 25.6 54 25.6C54.1 25.6 54.1 25.6 54.2 25.5C54.3 25.4 54.3 25.2 54.2 25.1L53.4 24.3C53.7 24.3 54 24.3 54.3 24.2L55.2 25.1C55.2 25.1 55.3 25.2 55.4 25.2C55.5 25.2 55.5 25.2 55.6 25.1C55.7 25 55.7 24.8 55.6 24.7L54.9 24C55.2 23.9 55.4 23.9 55.7 23.8L56.6 24.7C56.6 24.7 56.7 24.8 56.8 24.8C56.9 24.8 56.9 24.8 57 24.7C57.1 24.6 57.1 24.4 57 24.3L56.3 23.6C56.4 23.6 56.5 23.5 56.7 23.5L57.4 24.2C57.4 24.2 57.5 24.3 57.6 24.3C57.7 24.3 57.7 24.3 57.8 24.2C57.9 24.1 57.9 23.9 57.8 23.8L57 23.5C57.1 23.5 57.1 23.4 57.2 23.4C59.3 25.2 60.7 27.6 62.2 30.2L62.9 31.3C64.1 33.5 64.4 36.3 63.5 38.8Z" fill="#0C53B1"/>
</g>
<defs>
<clipPath id="clip0_52_33">
<rect width="65" height="65" fill="white"/>
</clipPath>
</defs>
</svg>
