<svg width="55" height="108" viewBox="0 0 55 108" fill="none" xmlns="http://www.w3.org/2000/svg">
<path d="M37.3483 107.279C40.3241 107.241 43.3129 107.194 46.2362 106.824C46.5902 106.777 47.0228 106.682 47.0883 106.426C47.1801 106.085 46.5771 105.886 46.092 105.83C44.5189 105.659 42.9066 105.621 41.3204 105.593C30.8462 105.384 20.3721 105.176 9.89797 105.242C7.89228 105.252 5.88658 105.28 3.894 105.47C2.91082 105.564 0.905167 105.612 0.236605 106.237C-0.405738 106.834 0.380781 107.184 1.15421 107.355C3.5925 107.914 6.86977 107.525 9.39982 107.525C15.3644 107.525 21.3422 107.468 27.3068 107.402C30.6496 107.374 34.0055 107.326 37.3483 107.279Z" fill="url(#paint0_linear_68_102)"/>
<path d="M37.3483 107.279C40.3241 107.241 43.3129 107.194 46.2362 106.824C46.5902 106.777 47.0228 106.682 47.0883 106.426C47.1801 106.085 46.5771 105.886 46.092 105.83C44.5189 105.659 42.9066 105.621 41.3204 105.593C30.8462 105.384 20.3721 105.176 9.89797 105.242C7.89228 105.252 5.88658 105.28 3.894 105.47C2.91082 105.564 0.905167 105.612 0.236605 106.237C-0.405738 106.834 0.380781 107.184 1.15421 107.355C3.5925 107.914 6.86977 107.525 9.39982 107.525C15.3644 107.525 21.3422 107.468 27.3068 107.402C30.6496 107.374 34.0055 107.326 37.3483 107.279Z" fill="url(#paint1_linear_68_102)"/>
<path d="M26.3105 21.4144C26.1007 20.0789 23.7935 19.018 22.0369 19.4348C20.2541 19.861 19.4282 21.2818 18.4188 22.4185C17.6192 23.3183 16.5967 24.114 15.4168 24.7486C14.8663 25.0517 14.1977 25.4306 14.3157 25.9231C14.3681 26.122 14.5385 26.302 14.7089 26.463C15.4037 27.1261 16.1116 27.7797 17.0161 28.2911C17.9207 28.8026 19.035 29.1531 20.1886 29.0963C22.2991 29.0016 23.8722 27.6186 24.6325 26.1978C25.288 24.938 26.5202 22.8068 26.3105 21.4144Z" fill="#97A8B2"/>
<path d="M17.239 45.8334C17.239 45.8334 8.7443 96.1113 8.71808 103.566L13.7913 103.67C13.7913 103.67 27.0576 63.0632 30.1776 60.8278C30.1776 60.8278 31.4754 60.6573 31.9735 60.8278C32.4717 60.9983 31.6851 102.23 30.8461 104.996H35.0672C35.0672 104.996 46.2755 56.7642 45.8298 46.1271C45.8298 46.1271 43.457 40.7848 33.5073 41.2679C23.5575 41.751 18.2352 40.5291 17.239 45.8334Z" fill="#998675"/>
<path d="M46.8391 47.4816C46.1706 40.7565 43.4177 27.2208 40.691 20.9219C40.5468 20.5904 40.3895 20.2494 40.1011 20.0031C39.6029 19.5768 38.8557 19.539 38.1741 19.5295C36.483 19.5105 32.0521 19.6716 30.3742 19.7758C29.4828 19.8326 25.2879 19.6432 24.5013 20.0126C23.505 20.4767 22.8365 21.3387 22.2465 22.1912C19.2708 26.501 20.7128 31.6064 19.1135 36.4561C18.3007 38.9094 15.4298 47.9363 15.4823 50.1717C15.7838 50.778 16.046 51.4126 16.2164 52.0472C17.9599 53.809 22.5874 52.8428 24.9208 54.0363C26.7036 54.9456 28.6962 55.3814 30.7281 55.6561C31.1476 55.6277 31.554 55.5993 31.9604 55.5614C34.32 55.3435 39.3539 54.9457 41.4775 54.0174C43.6012 53.0891 45.5807 54.5952 46.4066 52.625C47.0751 50.9958 47.0096 49.2056 46.8391 47.4816Z" fill="#97A8B2"/>
<path d="M40.3764 7.12103C39.9044 6.36326 38.8426 5.87071 37.7414 5.64338C36.6403 5.41605 35.4736 5.40657 34.32 5.36869C33.0353 5.3308 31.7375 5.24555 30.4528 5.34027C29.1681 5.42552 27.8703 5.70021 26.874 6.28748C25.8777 6.87475 25.2223 7.82196 25.4058 8.74075L25.3272 11.4498C25.1436 13.4768 25.9302 15.5512 27.5164 17.2277C27.9621 17.7013 28.4864 18.1465 29.1812 18.4307C30.0071 18.7717 31.0034 18.838 31.9603 18.8475C33.0353 18.857 34.1495 18.7906 35.1196 18.4402C35.9062 18.156 36.5485 17.7014 37.1646 17.2372C38.0954 16.5458 39.013 15.8164 39.4849 14.9165C40.1797 13.5999 39.8126 12.1317 40.101 10.7393C40.2321 10.1331 40.4812 9.53642 40.5992 8.9302C40.7303 8.32399 40.7303 7.67988 40.3764 7.12103Z" fill="#89796E"/>
<path d="M14.5909 103.168C12.7163 102.969 8.9016 102.941 7.0139 103.073C5.50636 103.784 3.86774 104.352 2.15045 104.759C1.65231 104.882 1.12794 104.987 0.747776 105.252C0.367614 105.508 0.184111 105.962 0.485619 106.275C0.760909 106.54 1.27214 106.597 1.73095 106.616C5.21796 106.805 10.632 106.758 14.1059 106.464C14.3156 106.445 14.5385 106.426 14.6958 106.322C14.8269 106.246 14.8925 106.123 14.9449 106.01C15.3775 105.081 15.2464 104.03 14.5909 103.168Z" fill="#A58C41"/>
<path d="M36.5485 103.405C36.5485 103.405 30.4922 103.566 29.8629 103.831C29.2337 104.096 28.5913 106.483 29.6138 106.824C30.6495 107.165 42.1985 106.313 42.1985 106.313C42.1985 106.313 43.1555 105.328 40.2846 104.731C37.4269 104.134 36.968 104.134 36.5485 103.405Z" fill="#A58C41"/>
<path d="M40.2715 35.5089C37.8857 35.6225 35.4867 35.6036 33.1008 35.4426C32.6551 36.5413 32.2095 37.659 32.0259 38.7957C31.9473 39.2314 31.9211 39.6766 32.1046 40.0934C32.2881 40.5101 32.7338 40.889 33.3237 40.9743L34.7002 41.571C36.1946 40.2828 38.2396 39.3829 40.0093 38.2842C41.2285 37.5264 42.3165 36.6739 43.4046 35.8214C42.5132 35.3857 41.3464 35.452 40.2715 35.5089Z" fill="#CCCCCC"/>
<path d="M54.757 37.5643C54.8488 38.2747 54.8881 39.023 54.3899 39.6481C53.6952 40.5196 52.1745 40.8511 50.785 40.8606C47.4159 40.889 44.3484 39.5251 41.6742 38.0379C41.1105 37.7254 40.5468 37.4033 39.8651 37.2328C38.9868 37.0149 38.0167 37.1002 37.1122 36.9771C36.9549 36.9581 36.7714 36.9202 36.6927 36.816C36.6272 36.7402 36.6403 36.6455 36.6534 36.5508C36.7452 35.9067 36.85 35.2626 36.9549 34.6185C38.3051 34.429 39.6423 34.9121 40.9138 35.2815C42.1985 35.6509 43.5356 35.9256 44.8728 36.1909C45.5151 36.3235 46.1837 36.4466 46.8522 36.4371C47.5208 36.4276 48.2287 36.2572 48.6482 35.8877C49.0414 35.5468 49.1463 35.0826 49.0939 34.6374C49.0283 34.2017 48.8055 33.7849 48.5826 33.3682C47.7567 31.8621 46.8522 30.3655 45.4496 29.1057C44.9907 28.6984 44.4533 28.2532 44.5188 27.7323C44.5713 27.3628 44.9252 27.0503 45.3578 26.8514C45.7904 26.6619 46.3017 26.5672 46.7998 26.5009C47.6126 26.3872 48.8973 26.1031 49.6445 26.5009C50.4703 26.9366 50.8374 28.0733 51.2307 28.7268C52.3056 30.5455 53.2757 32.402 53.9442 34.3249C54.3375 35.3952 54.6128 36.475 54.757 37.5643Z" fill="#89796E"/>
<path d="M38.2265 35.7646C38.2265 36.1719 37.8333 36.5224 37.44 36.816C36.7583 37.318 35.9718 37.7632 35.0542 38.0095C34.1365 38.2558 33.0747 38.2652 32.2226 37.9337C31.3705 37.6022 30.7806 36.8824 30.9379 36.1909C31.069 35.6226 31.672 35.1584 32.3668 34.8837C33.0616 34.609 33.8613 34.4954 34.6478 34.3912C36.0505 34.2017 38.2265 34.3249 38.2265 35.7646Z" fill="#89796E"/>
<path d="M51.2832 26.5861C50.4442 24.3602 48.1239 22.5984 45.8954 20.9502C44.0339 19.5768 39.9045 18.5538 38.397 20.8745C37.1909 22.7405 39.5506 26.0462 40.3765 27.8081C40.6124 28.3006 40.927 28.8595 41.5956 29.0489C41.884 29.1247 42.1855 29.1341 42.5001 29.1247C45.3579 29.0773 48.2025 28.5185 50.6933 27.5049C50.9555 27.4007 51.2308 27.2681 51.3225 27.0598C51.4012 26.9082 51.3487 26.7472 51.2832 26.5861Z" fill="#97A8B2"/>
<path d="M32.5241 6.30643C32.8387 6.28748 33.0878 6.117 33.2845 5.93703C33.5335 6.37275 34.5167 6.42958 34.8575 6.02228C34.9886 6.34433 35.7096 6.42009 35.9587 6.12646C35.9063 6.29695 36.1422 6.46746 36.3782 6.4864C36.6141 6.51482 36.8632 6.43904 37.0861 6.36326C36.9943 6.70425 37.6367 6.9979 38.0299 6.78951C37.8857 7.22523 38.3839 7.70832 39 7.71779C38.6329 8.14403 38.8951 8.77866 39.5244 8.98705C39.118 9.29015 39.1442 9.849 39.5768 10.1332C39.1966 10.351 39.236 10.8436 39.6423 11.0235C39.4588 11.1562 39.485 11.3645 39.5244 11.554C39.5768 11.8571 39.6423 12.1697 39.6948 12.4728C39.3801 12.5864 39.4981 13.0032 39.839 13.0221C39.4457 13.3063 39.4457 13.8083 39.8259 14.0925C39.603 14.1967 39.4326 14.3577 39.367 14.5377C39.367 14.7082 39.7341 14.6798 39.9307 14.5945C40.7566 14.2346 41.5825 13.8557 42.369 13.4579C42.5656 13.3632 42.7623 13.259 42.8672 13.0979C42.972 12.9464 42.9327 12.7285 42.7361 12.6433C43.0638 12.5485 43.4046 12.4538 43.6144 12.2455C43.8241 12.0371 43.811 11.696 43.5095 11.5729C43.8241 11.6108 44.1256 11.4498 44.3092 11.2603C44.4927 11.0709 44.5844 10.8436 44.7417 10.6447C44.9908 10.3131 45.3972 9.91532 45.0826 9.61221C45.1875 9.46066 45.3972 9.36593 45.5807 9.25226C45.7643 9.14807 45.9478 9.00599 45.9478 8.83549C45.9478 8.66499 45.6856 8.49449 45.489 8.58921C45.974 8.39977 46.2886 7.99248 46.2624 7.59465C46.3935 7.34837 46.5115 7.10209 46.6033 6.84634C46.4722 6.80846 46.3411 6.78003 46.1969 6.74214C46.4984 6.41061 46.7606 5.89914 46.3148 5.67181C46.7737 5.60551 46.9572 5.11295 46.6033 4.88561C46.5115 4.82878 46.4066 4.7909 46.3542 4.71512C46.21 4.54463 46.4459 4.34572 46.4984 4.15627C46.5901 3.84369 46.092 3.52163 45.6594 3.63529C45.7905 3.21852 45.3055 2.7544 44.7155 2.73546C44.5976 2.73546 44.4664 2.74492 44.3616 2.69756C44.2305 2.64073 44.1912 2.51759 44.1387 2.42286C43.9945 2.16712 43.6537 1.96821 43.2735 1.92084C43.1031 1.9019 42.9196 1.9019 42.7754 1.8356C42.6181 1.75035 42.5526 1.59881 42.4215 1.49462C42.002 1.18204 41.1761 1.52302 40.7304 1.23885C40.5337 1.11572 40.4813 0.907338 40.2585 0.803145C39.957 0.661063 39.5375 0.82208 39.1835 0.793663C38.6985 0.755775 38.3052 0.395858 37.8333 0.462163C37.6367 0.490579 37.4793 0.585295 37.2827 0.604239C36.9419 0.632655 36.6666 0.414791 36.3782 0.27271C36.0898 0.130628 35.5654 0.130643 35.5261 0.376918C35.159 -0.0872149 34.0841 -0.134592 33.6384 0.301125C33.6908 0.159043 33.2845 0.14011 33.2976 0.282191C32.9698 0.18747 32.629 0.0832655 32.2751 0.0927376C31.9211 0.0927376 31.541 0.225361 31.4099 0.462163C30.9904 0.31061 30.4529 0.15906 30.0858 0.376918C29.9416 0.462167 29.863 0.585292 29.7188 0.661069C29.4304 0.812622 29.0371 0.736842 28.6832 0.746314C28.3292 0.755786 27.8966 0.983107 28.067 1.21044C27.7393 1.16308 27.3854 1.12519 27.0708 1.21044C26.7562 1.29569 26.5202 1.57039 26.6513 1.78825C26.1269 1.80719 25.6812 2.16714 25.7074 2.53655C25.7074 2.6218 25.7336 2.71652 25.6812 2.80177C25.6287 2.88702 25.4846 2.92491 25.3797 2.98174C24.9078 3.19013 24.7242 3.66371 24.9602 4.02365C24.6194 4.08996 24.2785 4.17521 24.0426 4.35518C23.8066 4.53515 23.7149 4.83826 23.9115 5.03717C23.9901 5.11295 24.095 5.16977 24.1343 5.26449C24.1737 5.38763 24.0426 5.5013 23.9508 5.62444C23.7542 5.89913 23.8984 6.2875 24.2785 6.43905C23.7673 6.64744 23.6493 7.21577 24.0426 7.53782C23.5968 7.95459 23.741 8.5608 23.9246 9.07229C24.0294 9.3754 24.1343 9.6785 24.2261 9.98161C23.9901 10.2089 24.095 10.5878 24.449 10.7299C24.1868 10.9004 24.2916 11.2698 24.6194 11.3551C24.6456 11.7624 24.8422 12.1602 25.1699 12.4917C25.2486 12.6243 25.4977 12.4633 25.5501 12.3307C25.7992 11.6298 26.0482 10.9383 26.2973 10.2373C26.4284 9.85846 26.5595 9.42276 26.2449 9.10071C26.6513 8.90179 26.9003 8.55132 26.9266 8.20085C27.5034 8.30504 28.0933 7.8125 27.8704 7.41468C28.4734 7.49993 29.0895 7.05474 28.9716 6.61902C29.5221 6.76111 30.1907 6.42957 30.2169 6.0128C30.3742 6.27801 31.0559 6.18329 31.0559 5.88965C31.0559 6.03174 31.7245 5.93703 31.8031 5.96545C32.1046 6.06964 32.1046 6.33485 32.5241 6.30643Z" fill="#333333"/>
<path d="M34.5954 40.548C34.7396 40.889 34.7789 41.2679 34.7265 41.6279C26.1794 42.1015 17.6192 42.3004 9.05895 42.2151C8.37728 39.8945 10.7631 40.5575 12.6377 40.6617C15.1153 40.8038 17.5929 40.889 20.0705 40.9269C21.3814 40.9364 34.5036 40.3018 34.5954 40.548Z" fill="#F7F7F7"/>
<path d="M8.15442 24.4361C17.1472 24.2561 25.419 24.1898 34.1628 23.5646C34.5298 28.869 35.1722 35.8689 34.3332 41.1354C28.3555 41.6374 21.6567 41.0975 15.6528 41.3722C14.1846 41.4385 12.6639 41.5995 11.1957 41.5521C9.72751 41.5048 9.4391 40.6618 9.25557 39.4399C8.88852 36.9487 9.00653 34.3344 8.79679 31.8243C8.74435 31.076 8.54769 24.474 8.15442 24.4361Z" fill="#E6E6E6"/>
<path d="M23.7411 34.4291C22.6268 33.4913 22.0369 32.1368 21.4077 31.0002C21.3028 30.8107 20.962 30.7539 20.8047 30.9434C19.8215 32.099 18.9432 33.2924 18.1566 34.5238C17.9731 34.7985 18.5499 35.0448 18.7334 34.7701C20.3327 34.7227 21.932 34.7511 23.5182 34.8364C23.8197 34.8553 23.9115 34.5712 23.7411 34.4291ZM19.0612 34.287C19.6642 33.3777 20.3196 32.4873 21.0406 31.6253C21.5388 32.5536 22.05 33.5292 22.8234 34.3344C21.2373 34.2396 20.1754 34.2396 19.0612 34.287Z" fill="white"/>
<path d="M17.4093 41.8647C17.8288 41.6184 18.2745 41.3342 18.3925 40.9554C18.5105 40.5765 18.2746 40.1786 17.9337 39.885C17.5798 39.5914 17.1341 39.3735 16.7015 39.1367C16.0198 38.7579 15.3906 38.3032 14.6171 38.038C13.8437 37.7728 12.8343 37.7349 12.1788 38.1422C11.7725 38.3979 11.5758 38.7673 11.4185 39.1367C11.0384 40.0176 10.8024 40.9364 10.7368 41.8552C10.7106 42.2057 10.7106 42.5656 10.9335 42.8687C11.1825 43.2003 11.6676 43.4086 12.1657 43.5034C14.0928 43.8633 16.0198 42.6888 17.4093 41.8647Z" fill="#89796E"/>
<defs>
<linearGradient id="paint0_linear_68_102" x1="-0.000672298" y1="106.448" x2="47.1096" y2="106.448" gradientUnits="userSpaceOnUse">
<stop stop-color="#4D4D4D"/>
<stop offset="1"/>
</linearGradient>
<linearGradient id="paint1_linear_68_102" x1="-0.000672298" y1="106.448" x2="47.1096" y2="106.448" gradientUnits="userSpaceOnUse">
<stop/>
<stop offset="1"/>
</linearGradient>
</defs>
</svg>
