<svg width="97" height="101" viewBox="0 0 97 101" fill="none" xmlns="http://www.w3.org/2000/svg">
<path d="M68.6021 99.4143C70.8923 99.4949 73.1826 99.4501 75.4728 99.4053C81.8604 99.2888 88.2568 99.1723 94.6444 99.0558C95.6374 99.0379 96.9257 98.8228 96.9972 98.0612C97.0599 97.3802 96.0489 96.9501 95.199 96.744C92.1395 96.0182 88.9189 95.8748 85.743 95.7494C81.0641 95.5701 76.3852 95.4178 71.7064 95.3013C68.781 95.2296 65.7841 95.1759 63.0644 95.9286C61.5794 96.3408 59.3875 98.0881 61.7493 98.9393C62.4023 99.1723 63.7264 99.0648 64.4331 99.1275C65.8108 99.2619 67.2065 99.3695 68.6021 99.4143Z" fill="url(#paint0_linear_68_14)"/>
<path d="M68.6021 99.4143C70.8923 99.4949 73.1826 99.4501 75.4728 99.4053C81.8604 99.2888 88.2568 99.1723 94.6444 99.0558C95.6374 99.0379 96.9257 98.8228 96.9972 98.0612C97.0599 97.3802 96.0489 96.9501 95.199 96.744C92.1395 96.0182 88.9189 95.8748 85.743 95.7494C81.0641 95.5701 76.3852 95.4178 71.7064 95.3013C68.781 95.2296 65.7841 95.1759 63.0644 95.9286C61.5794 96.3408 59.3875 98.0881 61.7493 98.9393C62.4023 99.1723 63.7264 99.0648 64.4331 99.1275C65.8108 99.2619 67.2065 99.3695 68.6021 99.4143Z" fill="url(#paint1_linear_68_14)"/>
<path d="M80.3305 94.8892C80.3395 94.934 80.3485 94.9787 80.3843 95.0146C80.429 95.0683 80.5095 95.0683 80.581 95.0683C81.082 95.0594 81.592 95.0236 82.0841 94.934C82.2988 94.8981 82.5582 94.8085 82.6029 94.5935C82.6208 94.4949 82.5849 94.3874 82.5492 94.2977C82.3345 93.7332 82.1198 93.1687 81.9051 92.6042C81.8961 92.5863 81.8871 92.5594 81.8692 92.5504C81.8424 92.5325 81.8066 92.5236 81.7798 92.5236C81.422 92.5146 81.0642 92.5504 80.7063 92.6221C80.4827 92.6669 80.0622 92.6938 79.9549 92.9358C79.8475 93.1688 80.0263 93.563 80.08 93.796C80.1695 94.1544 80.25 94.5218 80.3305 94.8892Z" fill="#F9E9DE"/>
<path d="M68.1279 94.8891C68.611 94.916 69.0941 94.9429 69.5682 94.9787C69.613 94.9787 69.6667 94.9787 69.7024 94.9518C69.7472 94.916 69.7472 94.8622 69.7562 94.8084C69.783 94.1812 69.7651 93.554 69.7114 92.9267C69.7114 92.8819 69.7024 92.8282 69.6756 92.7923C69.6398 92.7475 69.5772 92.7296 69.5146 92.7117C69.2373 92.649 68.9599 92.5862 68.6736 92.5862C68.45 92.5862 68.1906 92.6221 67.9938 92.7386C67.788 92.864 67.8238 92.9447 67.8596 93.1597C67.958 93.7332 68.0206 94.3067 68.1279 94.8891Z" fill="#F9E9DE"/>
<path d="M79.409 92.9357C80.402 93.1508 81.4577 93.0253 82.3702 92.5863C81.3414 89.1185 81.0373 88.097 80.0174 84.6293C79.6953 83.5361 79.3643 82.4249 79.2301 81.2959C79.0691 79.8981 79.2033 78.4823 79.3375 77.0845C79.8563 71.6544 81.1804 53.6615 81.6993 48.2404C81.744 47.7834 81.7887 47.3174 81.6455 46.8783C81.243 45.6328 77.6377 45.4178 76.3316 45.3102C76.0453 45.2833 73.9072 45.2744 73.6746 45.4357C73.4062 45.6239 71.2859 45.2385 71.2411 45.5611C70.6149 49.8174 72.9768 58.769 73.0126 63.3299C73.0215 64.8443 73.6298 74.5396 73.7461 76.054C73.9519 78.7153 74.7749 81.5289 75.8843 83.9662C77.584 87.7117 77.8076 88.563 79.409 92.9357Z" fill="#97A8B2"/>
<path d="M72.0553 46.0719C71.7332 45.812 68.5215 45.5701 68.11 45.5611L62.9928 45.6418C62.8765 53.9213 64.5226 76.6543 66.1061 84.7816C66.786 88.2852 67.5643 89.468 67.5733 93.0343C68.3247 93.0343 69.0673 93.0343 69.8188 93.0343C70.0693 81.8694 72.8605 58.6436 73.12 47.4787C73.1289 46.9231 72.4937 46.4303 72.0553 46.0719Z" fill="#97A8B2"/>
<path d="M69.2641 20.0772C68.5395 17.6668 65.8019 17.3263 65.3278 20.4356C64.8984 23.2493 62.8318 29.1632 61.6509 31.9231C61.0873 33.2493 59.987 34.2708 58.4482 34.8443C55.3886 35.9823 52.4185 37.3264 49.3052 38.3299C49.3142 38.3479 49.3142 38.3568 49.3142 38.3747C48.7953 38.5808 48.2316 38.6883 47.668 38.6883C46.9344 38.6883 46.1472 38.5181 45.5209 38.8676C45.5567 38.9482 45.5925 39.0288 45.6372 39.1184C45.7893 39.1453 45.9325 39.1722 46.0845 39.1901C45.7267 39.2708 45.3779 39.4052 45.0558 39.5844C44.7427 39.7636 44.4385 40.0683 44.5369 40.3909C44.6442 40.7134 45.0736 40.803 45.4315 40.812C46.9344 40.8568 48.3927 40.3998 49.8151 39.898C53.7604 39.1095 56.4711 37.7475 60.4432 36.9679C61.2126 36.8156 62.0177 36.6543 62.6887 36.2511C63.3418 35.8568 63.798 35.2833 64.2005 34.7098C66.8755 30.8926 70.4361 23.9392 69.2641 20.0772Z" fill="#F9E9DE"/>
<path d="M75.2848 15.0862C75.8395 14.5038 76.2689 13.6794 76.5015 12.6579C76.9309 10.7672 77.1546 8.77796 76.6984 6.92312C76.1706 4.7905 74.3008 2.47865 71.939 2.67579C69.1746 2.8998 68.7542 6.51989 68.5484 8.93925C68.3785 10.8568 68.7184 12.8819 69.8456 14.3604C71.5454 16.5647 73.8355 16.6274 75.2848 15.0862Z" fill="#F9E9DE"/>
<path d="M64.2005 94.5845C64.6389 94.5934 65.0863 94.6203 65.5247 94.692C66.0435 94.7637 66.5624 94.8892 67.0813 94.8354C67.3139 94.8085 67.5376 94.7548 67.7702 94.7189C68.128 94.6651 68.4858 94.6741 68.8437 94.6741C69.1747 94.683 69.5057 94.683 69.8367 94.692C69.9261 94.692 70.0335 94.701 70.1051 94.7547C70.1856 94.8175 70.2125 94.916 70.2304 95.0146C70.3109 95.382 70.3555 95.7583 70.3555 96.1346C70.3555 96.3587 70.3377 96.6096 70.1856 96.7709C70.0782 96.8873 69.9172 96.9501 69.7651 96.9949C69.4699 97.0666 69.1657 97.0845 68.8616 97.1024C67.296 97.192 65.7215 97.2727 64.1559 97.1741C63.6102 97.1383 62.6171 97.2189 62.2145 96.7798C61.8746 96.4124 62.0446 95.821 62.2503 95.4357C62.644 94.701 63.4491 94.5755 64.2005 94.5845Z" fill="#537082"/>
<path d="M64.9341 95.9464C65.0415 95.9823 65.1668 96.0002 65.2831 95.9912C65.3009 95.9912 65.3188 95.9822 65.3367 95.9733C65.3546 95.9554 65.3546 95.9374 65.3546 95.9106C65.3814 95.5163 65.3904 95.1131 65.3725 94.7188C65.3725 94.7009 65.3725 94.683 65.3635 94.6651C65.3546 94.6472 65.3278 94.6382 65.301 94.6292C64.9431 94.5396 64.961 94.6382 64.961 94.9697C64.961 95.2923 64.952 95.6239 64.9341 95.9464Z" fill="#C1C1C1"/>
<path d="M66.1597 95.7583C66.1597 95.7941 66.1598 95.83 66.1866 95.8568C66.2134 95.8748 66.2492 95.8748 66.2761 95.8658C66.3745 95.8479 66.4728 95.8389 66.5712 95.821C66.5891 95.821 66.6071 95.812 66.616 95.8031C66.6339 95.7852 66.6339 95.7672 66.6339 95.7404C66.6429 95.4088 66.6429 95.0773 66.6429 94.7457C66.6429 94.7278 66.6429 94.7099 66.6339 94.701C66.625 94.683 66.607 94.683 66.5891 94.674C66.4371 94.6292 66.2939 94.7099 66.1597 94.674C66.1419 95.0325 66.1597 95.3999 66.1597 95.7583Z" fill="#C1C1C1"/>
<path d="M67.3496 95.6956C67.3496 95.7135 67.3586 95.7314 67.3675 95.7404C67.3765 95.7493 67.3944 95.7493 67.4123 95.7493C67.4839 95.7493 67.5644 95.7493 67.6359 95.7493C67.6717 95.7493 67.7075 95.7494 67.7343 95.7225C67.7522 95.7046 67.7523 95.6777 67.7612 95.6508C67.7791 95.4357 67.8059 94.4769 67.3765 94.6562C67.0812 94.7726 67.3049 95.4716 67.3496 95.6956Z" fill="#C1C1C1"/>
<path d="M79.9548 95.1131C80.0801 94.8981 80.2231 94.683 80.4199 94.5307C80.6257 94.3694 80.8762 94.2708 81.1267 94.1902C81.4488 94.0916 81.7887 94.0289 82.1287 94.0737C82.6476 94.1454 83.1128 94.4949 83.408 94.9339C83.7033 95.373 83.8553 95.8927 83.9269 96.4214C83.9448 96.5378 83.9537 96.6633 83.9179 96.7798C83.8732 96.8963 83.7837 96.9769 83.6764 97.0486C83.3543 97.2637 82.9607 97.3443 82.576 97.3891C82.0034 97.4608 81.422 97.4877 80.8405 97.5146C80.5721 97.5235 80.2858 97.5325 80.0264 97.4429C79.6148 97.2995 79.4001 97.0486 79.4628 96.6275C79.5433 96.0899 79.6864 95.5881 79.9548 95.1131Z" fill="#537082"/>
<path d="M66.8397 23.0879C65.963 30.122 64.1112 36.9858 62.6261 43.9213C62.483 44.5933 62.3398 45.2922 62.5276 45.9553C62.7871 46.8783 63.637 47.5324 64.5405 47.8639C65.5156 48.2313 66.5713 48.303 67.6091 48.3657C71.4649 48.5808 75.3297 48.5808 79.1766 48.3657C79.7044 48.3388 80.2501 48.303 80.7242 48.0611C81.5383 47.6579 81.9945 46.7349 82.0929 45.8299C82.2003 44.9249 82.0124 44.0198 81.8693 43.1148C81.0104 37.6758 81.6725 32.0754 80.7153 26.6453C80.4469 25.0951 80.0443 23.5628 79.9191 21.9947C79.8475 21.0897 79.8743 20.1758 79.6864 19.2976C79.4986 18.4105 79.0513 17.5324 78.273 17.0664C76.8595 16.2241 75.0881 17.0575 73.4599 17.2815C72.3774 17.4249 71.2771 17.2815 70.2214 17.0306C69.4073 16.8424 68.5931 16.2779 68.0027 17.0216C66.9381 18.3747 67.0455 21.4661 66.8397 23.0879Z" fill="#EFEFEF"/>
<path d="M66.7503 32.2098C65.7304 32.2098 65.7304 33.7959 66.7503 33.7959C67.7701 33.7869 67.7701 32.2098 66.7503 32.2098Z" fill="#333333"/>
<path d="M68.8973 28.1508C67.8774 28.1508 67.8774 29.7368 68.8973 29.7368C69.9171 29.7278 69.9171 28.1508 68.8973 28.1508Z" fill="#333333"/>
<path d="M70.7492 34.3156C69.7293 34.3156 69.7293 35.9016 70.7492 35.9016C71.769 35.8926 71.769 34.3156 70.7492 34.3156Z" fill="#333333"/>
<path d="M72.0911 24.9429C71.0712 24.9429 71.0712 26.5289 72.0911 26.5289C73.111 26.52 73.111 24.9429 72.0911 24.9429Z" fill="#333333"/>
<path d="M65.5067 38.554C64.4869 38.554 64.4869 40.14 65.5067 40.14C66.5177 40.131 66.5266 38.554 65.5067 38.554Z" fill="#333333"/>
<path d="M74.113 30.4536C73.0931 30.4536 73.0931 32.0396 74.113 32.0396C75.1328 32.0396 75.1328 30.4536 74.113 30.4536Z" fill="#333333"/>
<path d="M64.7374 44.4948C63.7175 44.4948 63.7175 46.0809 64.7374 46.0809C65.7572 46.0809 65.7572 44.4948 64.7374 44.4948Z" fill="#333333"/>
<path d="M69.1836 40.6508C68.1637 40.6508 68.1637 42.2368 69.1836 42.2368C70.1945 42.2278 70.1945 40.6508 69.1836 40.6508Z" fill="#333333"/>
<path d="M72.7352 44.7726C71.7153 44.7726 71.7153 46.3586 72.7352 46.3586C73.7461 46.3496 73.7551 44.7726 72.7352 44.7726Z" fill="#333333"/>
<path d="M74.113 38.554C73.0931 38.554 73.0931 40.14 74.113 40.14C75.1328 40.131 75.1328 38.554 74.113 38.554Z" fill="#333333"/>
<path d="M80.3305 44.7726C79.3106 44.7726 79.3106 46.3586 80.3305 46.3586C81.3414 46.3496 81.3414 44.7726 80.3305 44.7726Z" fill="#333333"/>
<path d="M80.3305 37.6669C81.3503 37.6669 81.3503 36.0809 80.3305 36.0809C79.3106 36.0899 79.3106 37.6669 80.3305 37.6669Z" fill="#333333"/>
<path d="M69.1836 21.941C68.1637 21.941 68.1637 23.5271 69.1836 23.5271C70.1945 23.5181 70.1945 21.941 69.1836 21.941Z" fill="#333333"/>
<path d="M72.7352 20.0863C73.7551 20.0863 73.7551 18.5002 72.7352 18.5002C71.7153 18.5002 71.7153 20.0863 72.7352 20.0863Z" fill="#333333"/>
<path d="M77.5124 17.3981C76.4926 17.3981 76.4926 18.9841 77.5124 18.9841C78.5323 18.9841 78.5323 17.3981 77.5124 17.3981Z" fill="#333333"/>
<path d="M79.5611 26.4482C78.5413 26.4482 78.5413 28.0342 79.5611 28.0342C80.581 28.0342 80.581 26.4482 79.5611 26.4482Z" fill="#333333"/>
<path d="M71.3932 47.8729C70.266 45.6149 69.7561 43.1328 69.1657 40.6865C68.5394 38.07 67.9669 35.4446 67.609 32.7744C67.278 30.2744 67.1169 27.7654 67.108 25.2474C67.099 24.0288 67.1349 22.8191 67.2065 21.6095C67.2602 20.6686 67.1528 16.4392 69.112 17.1113C69.2552 17.165 69.3625 16.932 69.2194 16.8604C67.6001 16.036 67.0633 17.9625 66.9112 19.1901C66.4997 22.6041 66.437 26.0718 66.6786 29.4948C66.9022 32.7027 67.4122 35.8747 68.1189 39.0109C68.8167 42.1023 69.4341 45.3371 70.8565 48.1955C71.0354 48.5539 71.5722 48.2403 71.3932 47.8729Z" fill="#BC6269"/>
<path d="M81.252 30.812C81.1983 30.6418 80.9477 30.7134 80.9835 30.8837C82.075 36.6274 83.2469 42.3891 81.0819 48.0432C80.9388 48.4285 81.5561 48.5988 81.6993 48.2134C83.8463 42.5952 82.9965 36.4213 81.252 30.812Z" fill="#BC6269"/>
<path d="M78.917 46.2331C79.5612 46.1704 80.2679 46.1167 80.8047 46.4751C81.4219 46.8783 81.6366 47.6848 81.7708 48.4106C82.2002 50.7314 82.3971 53.097 82.3523 55.4536C82.3434 55.83 82.3255 56.2242 82.1645 56.5647C81.914 57.0755 81.3773 57.3712 80.8494 57.5862C78.6218 58.4913 76.1437 58.4375 73.7372 58.3658C73.4956 58.3568 73.2361 58.3479 73.0304 58.2224C72.6994 58.0253 72.5831 57.6041 72.4936 57.2188C71.9032 54.5217 71.4649 51.7887 71.1875 49.0378C71.1428 48.5898 71.0981 48.1238 71.2233 47.6937C71.6707 46.0629 77.3962 46.3855 78.917 46.2331Z" fill="#AA4A4D"/>
<path d="M80.3573 48.3926C79.9458 52.2457 73.9877 53.2851 72.5653 49.5575C72.5205 49.441 72.3415 49.4858 72.3773 49.6113C73.7729 53.8944 80.3126 52.5862 80.7957 48.4016C80.8315 48.1149 80.3842 48.1149 80.3573 48.3926Z" fill="#BC6269"/>
<path d="M76.8773 51.1615C77.1099 51.0002 77.1458 50.6239 76.94 50.4267C76.7074 50.2027 76.3048 50.3013 76.1795 50.588C76.1616 50.6239 76.1528 50.6597 76.1528 50.7045C76.1349 50.7762 76.1437 50.8479 76.1706 50.9285C76.269 51.2153 76.6268 51.3317 76.8773 51.1615Z" fill="#BC6269"/>
<path d="M79.8563 31.2152C79.7758 29.2349 79.5522 27.2636 79.3375 25.2923C79.257 24.5934 79.1854 23.8855 78.9707 23.2224C78.7738 22.6041 78.4787 22.0216 78.3713 21.3854C78.2998 20.9195 78.3265 20.4177 78.076 20.0234C77.745 19.5127 77.0741 19.3604 76.4658 19.3156C75.768 19.2618 74.9987 19.2887 74.4798 19.7546C73.7283 20.4267 73.8535 21.6274 74.095 22.613C74.3276 23.5449 74.605 24.4768 74.8018 25.4177C75.1776 27.2098 75.2491 29.0557 75.6158 30.8478C75.92 32.3353 75.8843 33.7958 75.9916 35.3191C76.1616 37.7564 75.6517 40.131 75.1954 42.5325C74.927 43.9572 74.6408 45.4088 74.6497 46.8604C74.3903 47.7027 74.1667 48.5539 73.9162 49.4052C73.8893 49.5038 73.8714 49.6382 73.9608 49.6919C74.0235 49.7278 74.095 49.7009 74.1576 49.7278C74.2292 49.7547 74.265 49.8443 74.2739 49.916C74.3455 50.2923 74.1845 50.6687 74.0771 51.036C73.9698 51.4034 73.9161 51.8425 74.1576 52.1382C74.3008 52.3174 74.5244 52.407 74.7481 52.4518C75.1328 52.5414 75.5622 52.5145 75.8843 52.2905C76.3942 51.941 76.5105 51.2511 76.5642 50.6418C76.6805 49.5217 76.7609 48.3927 76.8325 47.2726C77.7092 43.2582 78.595 39.2439 79.4717 35.2296C79.6059 34.6292 79.7401 34.0199 79.8027 33.4016C79.9011 32.6758 79.8921 31.941 79.8563 31.2152Z" fill="#F9E9DE"/>
<path d="M86.5213 26.6991C86.2171 26.484 85.8234 26.4213 85.555 26.1615C85.1793 25.803 85.1793 25.2027 85.3314 24.7099C85.4745 24.217 85.7429 23.7511 85.8055 23.2403C85.9845 21.9052 84.8393 20.821 83.9894 19.7726C81.7261 16.9769 81.261 13.2672 81.1894 9.78152C81.1715 9.01988 81.252 8.22236 81.1267 7.65784C81.1357 7.59512 81.1536 7.5324 81.1625 7.46968C81.5741 5.44459 80.9388 4.14532 79.6416 2.78331C77.5303 0.552127 74.1397 -0.343931 71.2501 0.767181C71.1785 0.794063 71.098 0.829884 71.0175 0.856765C70.0245 1.71698 69.1656 2.76539 68.7989 4.1274C68.5663 4.96969 68.4948 5.96432 68.6647 6.84245C68.7005 6.95894 68.7362 7.07541 68.7809 7.18293C68.8346 6.25103 69.0046 5.24746 69.4788 4.98761C69.8992 4.74567 72.0374 5.47147 72.6726 5.42667C73.7551 5.35498 75.6785 4.61127 76.26 5.91952C76.5553 6.5826 76.2063 7.35321 75.9379 7.98941C75.92 8.02525 75.9111 8.05212 75.8932 8.08796C75.7322 8.47327 75.5801 8.86752 75.5533 9.00193C75.3475 10.1578 75.1954 11.2062 75.1954 12.0665C74.7839 13.5898 74.7123 15.2206 74.766 16.8156C74.7749 17.0485 74.7839 17.2905 74.8823 17.4966C75.258 18.312 76.4389 18.1149 77.3156 18.312C78.2102 18.5181 78.8991 19.2618 79.3285 20.0772C80.5273 22.3532 80.0353 25.1131 80.3305 27.6668C80.411 28.3478 80.5541 29.0378 80.8941 29.6382C81.583 30.8658 83.1217 31.5557 84.4905 31.2511C85.8682 30.9464 86.9686 29.674 87.0759 28.2762C87.1475 27.6937 87.0044 27.0396 86.5213 26.6991Z" fill="#8C6239"/>
<path d="M15.596 100.955C17.8683 101.036 20.1317 100.991 22.404 100.946C28.7289 100.83 35.0628 100.705 41.3878 100.588C42.3718 100.57 43.6423 100.355 43.7139 99.5934C43.7765 98.9124 42.7745 98.4823 41.9336 98.2762C38.9008 97.5504 35.716 97.407 32.5669 97.2906C27.9328 97.1113 23.2986 96.968 18.6735 96.8515C15.7838 96.7798 12.8048 96.726 10.112 97.4877C8.64479 97.8998 6.47091 99.6561 8.80586 100.498C9.44998 100.731 10.765 100.624 11.4628 100.687C12.8316 100.803 14.2093 100.911 15.596 100.955Z" fill="url(#paint2_linear_68_14)"/>
<path d="M15.596 100.955C17.8683 101.036 20.1317 100.991 22.404 100.946C28.7289 100.83 35.0628 100.705 41.3878 100.588C42.3718 100.57 43.6423 100.355 43.7139 99.5934C43.7765 98.9124 42.7745 98.4823 41.9336 98.2762C38.9008 97.5504 35.716 97.407 32.5669 97.2906C27.9328 97.1113 23.2986 96.968 18.6735 96.8515C15.7838 96.7798 12.8048 96.726 10.112 97.4877C8.64479 97.8998 6.47091 99.6561 8.80586 100.498C9.44998 100.731 10.765 100.624 11.4628 100.687C12.8316 100.803 14.2093 100.911 15.596 100.955Z" fill="url(#paint3_linear_68_14)"/>
<path d="M79.6596 97.631C79.8474 97.8819 80.2054 97.9088 80.5185 97.9177C81.4131 97.9357 82.3077 97.9625 83.1844 97.8102C83.3902 97.7743 83.5959 97.7295 83.7658 97.6131C83.9358 97.4966 84.0611 97.2905 84.0343 97.0933C84.0074 96.8783 83.8106 96.717 83.5959 96.6543C83.3812 96.6005 83.1576 96.6274 82.9429 96.6543C82.2182 96.7528 81.4935 96.8962 80.7689 96.9768C80.4468 97.0127 80.0264 96.941 79.7223 97.0306C79.436 97.0933 79.5075 97.4339 79.6596 97.631Z" fill="white"/>
<path d="M62.2772 97.2188C62.4203 97.3443 62.6261 97.3801 62.8139 97.3981C63.7801 97.5056 64.7553 97.4876 65.7304 97.4787C66.4282 97.4697 67.1349 97.4608 67.8327 97.4518C68.4679 97.4429 69.1031 97.4339 69.7204 97.3084C69.8635 97.2815 70.0066 97.2457 70.1229 97.1561C70.2392 97.0755 70.3377 96.9411 70.3377 96.7977C70.3377 96.726 70.3108 96.6543 70.2571 96.6006C70.1587 96.511 70.0067 96.5289 69.8725 96.5468C67.5465 96.9142 65.1758 96.9411 62.8408 96.6454C62.6708 96.6274 62.3487 96.5468 62.2145 96.6991C62.0803 96.8425 62.143 97.1113 62.2772 97.2188Z" fill="white"/>
<path d="M42.9891 38.6525C42.8549 38.2135 42.7028 37.7385 42.837 37.3263C42.9891 36.8514 43.4633 36.6454 43.9017 36.5199C44.4026 36.3765 44.9305 36.278 45.4493 36.2332C45.673 36.2152 46.2008 36.1525 46.4155 36.278C46.7196 36.4572 46.7645 36.8604 46.845 37.2278C47.3549 39.4142 47.8648 41.2063 48.2137 43.2314C48.2584 43.5092 48.3032 43.8318 48.1511 44.0379C48.0527 44.1723 47.9005 44.226 47.7574 44.2708C46.9522 44.5306 44.5457 45.364 44.1968 43.9303C43.7674 42.1651 43.5438 40.4088 42.9891 38.6525Z" fill="#AA6A64"/>
<path d="M43.1412 38.1866C43.1144 38.0163 43.0965 37.8281 43.1681 37.6848C43.2486 37.5145 43.4275 37.4518 43.5885 37.398C44.2774 37.183 44.9841 37.0486 45.6909 36.9142C45.8072 36.8963 46.0845 36.8425 46.2008 36.8873C46.2723 36.9142 46.4155 36.959 46.4692 37.0217C46.666 37.2368 46.6482 37.5504 46.7466 37.8371C46.845 38.088 46.8449 38.3658 46.9165 38.6256C46.997 38.9124 47.0507 39.1991 47.1133 39.4859C47.2028 39.907 47.3101 40.3371 47.4353 40.7493C47.5248 41.0539 47.5964 41.3586 47.6948 41.6543C47.7395 41.7887 47.7664 41.95 47.7396 42.0845C47.6949 42.2816 47.5607 42.3711 47.3907 42.4339C47.0686 42.5504 46.7197 42.6131 46.3798 42.6669C45.8788 42.7565 45.3688 42.8461 44.8678 42.9357C44.6889 42.9715 44.3221 43.088 44.1879 42.855C44.1163 42.7296 44.1074 42.5056 44.0805 42.3622C44.0358 42.1651 44 41.9769 43.9553 41.7798C43.7763 41.0092 43.5617 40.2475 43.3918 39.4769C43.2934 39.0468 43.2039 38.6167 43.1412 38.1866Z" fill="white"/>
<path d="M45.1452 36.6633C45.0915 36.6633 45.0288 36.6722 44.9662 36.6812C44.832 36.7081 44.6979 36.735 44.5637 36.7619C44.4832 36.7798 44.3848 36.8067 44.3848 36.8515C44.3848 36.8694 44.4116 36.8873 44.4384 36.8963C44.5726 36.9321 45.2436 36.8425 45.2615 36.717C45.2526 36.6812 45.2078 36.6633 45.1452 36.6633Z" fill="#5E625E"/>
<path d="M44.3042 36.8336C44.2774 36.8067 44.2416 36.8156 44.2148 36.8336C44.1879 36.8515 44.179 36.8873 44.179 36.9142C44.179 36.9321 44.1879 36.959 44.1969 36.977C44.2237 37.0128 44.2863 37.0038 44.3132 36.968C44.34 36.9321 44.34 36.8784 44.3132 36.8425L44.3042 36.8336Z" fill="#5E625E"/>
<path d="M45.9682 43.3927C45.9145 43.4554 45.8967 43.545 45.8967 43.6346C45.8967 43.6794 45.9056 43.7153 45.9146 43.7601C45.9503 43.8586 46.0398 43.9393 46.1382 43.9662C46.2366 44.002 46.3439 43.993 46.4424 43.9572C46.4692 43.9482 46.4961 43.9393 46.514 43.9214C46.5408 43.9034 46.5497 43.8676 46.5587 43.8407C46.5944 43.7242 46.5944 43.5987 46.5318 43.4912C46.4244 43.303 46.1203 43.2135 45.9682 43.3927Z" fill="#EBEFEB"/>
<path d="M40.6721 40.9554C40.2337 40.4088 39.5359 40.0772 38.8381 40.0952C38.9991 39.9339 39.1692 39.6651 39.0081 39.4948C38.9097 39.3873 38.7397 39.4052 38.5965 39.4231C37.9882 39.4948 37.362 39.441 36.7626 39.2708C36.7089 39.2529 36.6552 39.2439 36.6015 39.226C33.0141 37.8819 29.543 36.2331 26.233 34.3066C26.4924 33.1238 26.4387 31.8962 26.385 30.6865C26.3045 28.9392 26.224 27.2009 26.1524 25.4536C26.1256 24.7815 26.063 24.0557 25.6067 23.5718C24.7926 22.7206 23.227 23.2761 22.6813 24.3245C22.1356 25.364 22.2877 26.6274 22.4576 27.7923C22.9049 30.8389 23.3523 33.8944 23.7996 36.941C23.8532 37.2905 23.9159 37.6668 24.1664 37.9177C24.3632 38.1149 24.6495 38.1866 24.9178 38.2582C28.541 39.226 32.1553 40.1848 35.7785 41.1525C35.7875 41.1435 35.7875 41.1346 35.7964 41.1346C37.1115 41.8962 38.7307 42.1023 40.18 41.6633C40.3321 41.6185 40.5021 41.5557 40.5916 41.4213C40.6811 41.269 40.69 41.1077 40.6721 40.9554Z" fill="#EADDD0"/>
<path d="M35.8322 41.2332C35.8054 41.3049 35.7697 41.3766 35.6981 41.4124C35.6355 41.4482 35.5549 41.4303 35.4833 41.4213C31.7528 40.7314 27.8702 40.1489 24.3364 38.7601C24.0502 38.6436 23.7549 38.5271 23.5402 38.3031C23.2897 38.0432 23.1734 37.6758 23.075 37.3263C21.9209 33.2851 20.8295 29.1543 20.9727 24.9608C20.9995 24.0826 21.1158 23.1417 21.6883 22.4787C22.3235 21.7529 23.3523 21.5468 24.3096 21.4213C24.9269 21.3407 25.6336 21.2959 26.1167 21.6901C26.5909 22.0754 26.6892 22.7475 26.7608 23.3478C26.9845 25.364 27.2171 27.3891 27.4407 29.4052C27.5928 30.7672 27.7449 32.1292 27.9059 33.4912C27.9328 33.7511 27.9686 34.0199 28.0849 34.2529C28.3264 34.7367 28.8721 34.9697 29.3731 35.1758C31.1534 35.9016 32.9069 36.7081 34.6245 37.5862C35.0897 37.8282 36.53 38.4106 36.7 38.9482C36.7984 39.2529 36.3869 39.7636 36.2616 40.0414C36.0738 40.4805 36.0201 40.8031 35.8322 41.2332Z" fill="#E8E8E8"/>
<path d="M22.2788 97.4429C22.6814 97.7386 22.1356 97.9626 21.8672 97.9895C21.3841 98.0253 20.8832 98.0074 20.418 97.9089C20.2927 97.882 20.1675 97.8551 20.069 97.7834C19.9885 97.7297 19.9349 97.6579 19.8723 97.5863C19.7202 97.3891 19.3534 97.0755 19.2907 96.8426C19.246 96.6544 19.3802 96.4662 19.4786 96.296C19.7023 95.9286 20.078 95.5522 20.0601 95.1132C21.1068 95.2117 22.0998 94.9071 22.9676 95.14C23.0392 95.4537 23.3165 95.7046 23.1823 95.9465C23.2628 95.7852 25.7857 96.3318 26.0809 96.3766C26.564 96.4572 27.0471 96.5289 27.5302 96.5648C27.9059 96.5917 28.6395 96.4393 28.8542 96.7709C28.9258 96.8874 28.9526 97.0218 28.9705 97.1562C28.9795 97.2547 28.9794 97.3623 28.9436 97.4519C28.881 97.6132 28.7021 97.7386 28.5142 97.7924C26.4477 98.4465 24.3811 97.416 22.2788 97.4429Z" fill="#999999"/>
<path d="M28.9436 46.6185C28.8095 46.2153 28.3801 46.0002 27.9775 45.8389C25.3473 44.8174 22.4577 44.7099 19.6307 44.7278C18.1635 44.7367 16.7053 44.7726 15.2382 44.8353C14.2183 44.8801 12.1517 44.8981 11.6239 46.0002C11.0334 47.2368 10.5146 49.683 10.8187 50.9285C11.3645 53.1956 11.1676 57.2547 11.7759 60.1758C11.7133 72.2188 11.6507 84.2529 11.5881 96.296C12.5632 96.3229 13.5384 96.3407 14.5135 96.3676C14.6567 92.3981 15.8733 88.5271 16.8842 84.6472C17.9488 80.5433 18.7808 76.3945 19.3981 72.2188C19.6039 79.9966 19.8096 87.7834 20.0243 95.5612C20.9995 95.5612 21.9746 95.5612 22.9497 95.5612C22.9676 91.5917 24.0591 87.6938 24.9447 83.7959C27.0023 74.7547 28.7647 60.5791 28.6126 51.3676C28.7021 49.9966 28.7826 48.6256 28.9616 47.3174C28.9884 47.0844 29.0152 46.8425 28.9436 46.6185Z" fill="#4D4D4D"/>
<path d="M13.7978 98.2225C14.1914 98.5272 13.6368 98.7423 13.3684 98.7602C12.8853 98.7871 12.3843 98.7512 11.9191 98.6437C11.7939 98.6168 11.6686 98.5809 11.5702 98.5093C11.4897 98.4555 11.436 98.3749 11.3824 98.3032C11.2303 98.0971 10.8724 97.7745 10.8276 97.5505C10.7829 97.3623 10.9261 97.1741 11.0334 97.0039C11.266 96.6455 11.6597 96.2691 11.6507 95.8301C12.6885 95.9555 13.6994 95.6688 14.5582 95.9286C14.6209 96.2422 14.8892 96.5021 14.7461 96.7441C14.8355 96.5828 17.3405 97.1831 17.6357 97.2458C18.1099 97.3354 18.593 97.4161 19.085 97.4699C19.4607 97.5057 20.1943 97.3712 20.4001 97.7028C20.4716 97.8193 20.4895 97.9537 20.4985 98.0881C20.5074 98.1867 20.4985 98.2942 20.4627 98.3838C20.3911 98.5451 20.2122 98.6616 20.0243 98.7153C17.9309 99.3247 15.9001 98.2494 13.7978 98.2225Z" fill="#999999"/>
<path d="M24.3006 3.74207C23.3255 4.4858 22.735 5.62381 22.1893 6.72596C21.5183 8.09693 20.8563 9.52167 20.7579 11.045C20.6864 12.174 20.91 13.3747 20.4001 14.3783C22.3235 15.113 24.2112 15.9285 26.063 16.8245C28.7021 13.9661 30.5361 10.3729 31.2965 6.55571C31.3233 6.43026 31.3412 6.29586 31.2965 6.17041C31.2428 6.036 31.1176 5.94637 31.0013 5.86573C29.3552 4.77254 27.4497 4.15428 25.562 3.536C25.3652 3.47327 25.1595 3.40159 24.9537 3.42848C24.7122 3.45536 24.4974 3.58974 24.3006 3.74207Z" fill="#EADDD0"/>
<path d="M28.7737 44.1543C28.6842 42.1651 28.6395 40.1668 28.6663 38.1776C28.711 33.6077 28.4695 29.0647 28.1385 24.5037C28.0043 22.6579 27.8522 20.8209 27.6823 18.9751C27.6196 18.2582 25.5352 17.5055 25.0163 17.398C24.7032 17.3353 24.399 17.2367 24.1038 17.1381C23.8175 17.0396 23.5312 16.932 23.2539 16.8245C21.8314 16.2779 20.4179 15.7313 18.9955 15.1847C18.7808 15.1041 18.5572 15.0234 18.3424 15.0683C18.1725 15.1041 18.0293 15.2116 17.8951 15.3191C15.2471 17.4607 14.5224 20.9464 13.7978 24.1095C12.1606 31.2242 11.2392 38.4912 11.0424 45.7672C11.0424 45.7672 11.4629 46.9231 12.8853 47.7386C14.3077 48.554 19.4339 49.1543 19.4339 49.1543L26.4119 48.3927C26.3851 48.4016 28.881 47.6041 28.7737 44.1543Z" fill="#EFEFEF"/>
<path d="M38.1492 38.321C38.2387 37.873 38.3461 37.3891 38.6413 37.0755C38.9812 36.717 39.4554 36.726 39.858 36.7977C40.3232 36.8783 40.7884 37.0127 41.2267 37.183C41.4146 37.2547 41.8619 37.4249 41.9782 37.622C42.1392 37.8998 41.9872 38.2851 41.8888 38.6436C41.2894 40.7941 40.8778 42.6042 40.2248 44.5396C40.1353 44.8085 40.019 45.1041 39.8043 45.2296C39.6701 45.3102 39.518 45.2923 39.3748 45.2744C38.6144 45.1758 36.3064 44.907 36.6821 43.5002C37.1473 41.7529 37.7824 40.0952 38.1492 38.321Z" fill="#3D3D3D"/>
<path d="M38.4802 37.9626C38.5429 37.8013 38.6055 37.631 38.7308 37.5325C38.8739 37.416 39.0439 37.4339 39.196 37.4518C39.8401 37.5504 40.4753 37.7206 41.1015 37.8998C41.1999 37.9267 41.4504 37.9984 41.522 38.088C41.5667 38.1418 41.6562 38.2404 41.6741 38.321C41.7367 38.5988 41.5667 38.8676 41.522 39.1633C41.4772 39.4321 41.352 39.674 41.2894 39.9339C41.2267 40.2206 41.1372 40.4984 41.0478 40.7762C40.9225 41.1884 40.8152 41.6095 40.7168 42.0306C40.6452 42.3353 40.5647 42.631 40.511 42.9357C40.4842 43.079 40.4306 43.2224 40.3501 43.3389C40.2248 43.5002 40.0817 43.5181 39.9207 43.5002C39.6076 43.4644 39.3034 43.3748 39.0081 43.2941C38.5608 43.1597 38.1225 43.0343 37.6752 42.8999C37.5141 42.855 37.1741 42.8102 37.1741 42.5414C37.1741 42.398 37.2726 42.2009 37.3083 42.0576C37.362 41.8694 37.4156 41.6812 37.4693 41.4841C37.6751 40.7224 37.863 39.9608 38.0777 39.1991C38.203 38.7869 38.3371 38.3747 38.4802 37.9626Z" fill="white"/>
<path d="M40.7795 37.4428C40.7347 37.4159 40.681 37.398 40.6274 37.389C40.5111 37.3532 40.3858 37.3263 40.2695 37.2905C40.1979 37.2725 40.1085 37.2546 40.0906 37.2905C40.0817 37.3084 40.0906 37.3353 40.1085 37.3532C40.198 37.4428 40.7794 37.6399 40.8421 37.5324C40.8599 37.5055 40.8242 37.4697 40.7795 37.4428Z" fill="#5E625E"/>
<path d="M40.028 37.2366C40.0191 37.2098 39.9922 37.1919 39.9564 37.2008C39.9295 37.2098 39.9028 37.2277 39.8938 37.2635C39.8849 37.2815 39.8759 37.3083 39.8849 37.3262C39.8938 37.371 39.9385 37.389 39.9743 37.3711C40.0101 37.3532 40.028 37.3084 40.028 37.2635V37.2366Z" fill="#5E625E"/>
<path d="M38.3462 43.7601C38.2746 43.7959 38.2119 43.8676 38.1761 43.9482C38.1582 43.9841 38.1404 44.0289 38.1315 44.0647C38.1136 44.1722 38.1493 44.2708 38.212 44.3425C38.2746 44.4142 38.373 44.45 38.4625 44.459C38.4893 44.459 38.5161 44.459 38.534 44.45C38.5608 44.441 38.5876 44.4231 38.6055 44.3962C38.686 44.3156 38.7487 44.1902 38.7487 44.0737C38.7576 43.8676 38.5519 43.6615 38.3462 43.7601Z" fill="#EBEFEB"/>
<path d="M24.9179 10.131C24.6137 9.80837 24.229 9.44994 23.7817 9.51267C23.3702 9.56643 23.0839 9.96966 23.0034 10.3818C22.9229 10.7851 22.9944 11.2062 23.0213 11.6184C23.0302 11.708 23.0213 11.8066 22.9676 11.8693C22.905 11.941 22.7976 11.941 22.6992 11.9499C22.3324 11.9858 21.9925 12.1829 21.7778 12.4786C21.6168 12.7026 21.5273 12.9804 21.3305 13.1865C21.0711 13.4643 20.6774 13.5539 20.3017 13.6077C19.9349 13.6614 19.577 13.7062 19.2103 13.7242C18.915 13.7421 18.5661 13.7242 18.3961 13.4733C18.3603 13.4285 18.3425 13.3747 18.3514 13.312C18.3693 13.2134 18.4677 13.1686 18.5482 13.1148C18.8524 12.9087 18.9598 12.5055 18.9776 12.1381C19.0045 11.7707 18.9776 11.3855 19.1387 11.0449C19.2281 10.8568 19.3713 10.6955 19.5144 10.5521C20.5522 9.47683 21.912 8.75999 23.3344 8.3478C23.7102 8.24028 25.1237 7.72951 25.4457 8.02521C25.7499 8.30299 24.9984 9.72773 24.9179 10.131Z" fill="#D7C68E"/>
<path d="M30.1425 8.00726C30.3303 8.11479 30.5093 8.25817 30.6167 8.43738C30.6882 8.55387 30.724 8.68828 30.7866 8.80476C30.9297 9.08254 31.1981 9.28862 31.5023 9.35135C31.5023 9.06461 31.5023 8.76891 31.5113 8.48217C31.5113 8.41945 31.5113 8.34775 31.5649 8.30295C31.6365 8.24022 31.7438 8.27607 31.8244 8.22231C31.8959 8.1775 31.9049 8.07894 31.9138 7.99829C31.9317 7.63091 31.9496 7.24562 31.8244 6.89616C31.7796 6.77071 31.7081 6.64525 31.6007 6.57356C31.4844 6.49292 31.3413 6.48395 31.1981 6.48395C30.5272 6.46603 29.1315 6.55565 28.6127 7.08432C28.0669 7.64884 29.7757 7.80117 30.1425 8.00726Z" fill="#D7C68E"/>
<path d="M12.2591 45.0593C12.3575 45.6507 12.4917 46.2511 12.3664 46.8335C12.277 47.2457 12.0533 47.6131 11.7939 47.9267C10.6219 49.3424 8.71637 49.7636 6.93608 49.8801C4.84268 50.0234 2.48088 49.7367 1.11211 48.0432C0.271174 47.0037 -0.0329876 45.579 0.00279712 44.217C0.0385818 42.855 0.387481 41.5199 0.727435 40.2116C1.55943 37.0217 2.40036 33.8317 3.23235 30.6417C3.36655 30.131 3.5097 29.6023 3.8586 29.2259C4.3238 28.7241 5.03054 28.5898 5.69255 28.5181C6.90923 28.3747 8.15277 28.303 9.34261 28.5808C10.3356 28.8138 11.8565 29.4679 12.3217 30.5252C12.8406 31.717 12.4559 33.8048 12.3754 35.0772C12.1607 38.4016 11.6865 41.7618 12.2591 45.0593Z" fill="#736357"/>
<path d="M14.2183 22.6041C15.265 21.0001 16.7321 19.5127 18.7182 18.7062C20.7042 17.8998 23.2718 17.9087 24.9984 19.0467C26.6982 20.1668 27.2618 22.0754 27.4855 23.8586C27.897 27.0844 27.548 30.355 26.7697 33.536C26.4387 34.9069 26.0183 36.2779 25.2578 37.5324C24.3274 39.0647 22.9229 40.355 21.4647 41.5736C18.6377 43.9303 15.3634 46.1525 11.4181 46.8425C10.9976 46.9142 10.5414 46.9858 10.2641 47.2457C9.72731 47.7474 10.2641 48.6167 11.0424 48.8048C11.8207 48.993 12.6527 48.7331 13.3773 48.4374C17.0274 46.9589 20.0064 44.5754 22.9139 42.2367C23.9338 41.4213 24.9626 40.588 25.5978 39.5396C26.1256 38.6704 26.3582 37.7027 26.5819 36.7439C27.4049 33.2044 28.2369 29.6471 28.5053 26.0449C28.6126 24.5396 28.6306 23.0073 28.1296 21.5557C27.6286 20.1041 26.555 18.7331 24.9447 18.0252C23.9785 17.6041 22.8781 17.4249 21.7867 17.398C19.1655 17.3353 16.5353 18.1148 14.5672 19.5395C13.771 20.113 13.0553 20.8209 12.778 21.6722C12.5275 22.4338 12.6438 23.4822 13.4489 23.984C13.7262 23.5628 13.9231 23.0521 14.2183 22.6041Z" fill="#736357"/>
<path d="M3.06234 24.3783C4.23429 22.9356 6.08619 21.8156 8.13486 21.7349C9.19051 21.6901 10.2372 21.9141 11.2392 22.2098C11.9638 22.4249 12.6884 22.6937 13.2341 23.1596C14.1019 23.8944 14.3614 25.0055 14.3972 26.0449C14.4419 27.1561 14.2809 28.2761 13.932 29.3514C13.7978 29.7725 13.6189 30.1937 13.261 30.5073C12.7332 30.9732 11.9191 31.0987 11.1587 31.1435C8.33168 31.3407 5.45995 30.9105 2.87451 29.9159C1.37155 29.3424 0.933175 29.1991 1.35365 27.7833C1.71149 26.5736 2.23035 25.3998 3.06234 24.3783Z" fill="#63564B"/>
<path d="M7.46391 41.2511C7.83965 41.1794 8.28694 41.0987 8.55532 41.3765C8.68951 41.5199 8.74319 41.726 8.77898 41.9231C9.02052 43.303 8.83267 44.7547 8.23327 46.0271C8.03646 46.4482 7.79491 46.8515 7.45496 47.1651C6.7661 47.8013 5.78198 47.9805 4.84264 47.9626C4.29692 47.9536 3.72436 47.873 3.27706 47.5683C2.56136 47.0755 2.31985 46.1436 2.24828 45.2744C2.18565 44.4948 2.20352 43.7063 2.32876 42.9357C2.39139 42.5145 2.4719 41.2511 2.94605 41.0898C3.1876 41.0091 3.75121 41.26 4.01065 41.3048C4.39533 41.3675 4.78901 41.4124 5.1737 41.4303C5.94307 41.4572 6.71244 41.4034 7.46391 41.2511Z" fill="#63564B"/>
<path d="M2.10509 41.8604C2.0872 41.9321 2.07828 42.0217 2.13195 42.0754C2.16774 42.1113 2.22139 42.1112 2.27507 42.1112C4.11798 42.1919 5.96094 42.2636 7.80385 42.3442C8.13486 42.3621 8.50161 42.3621 8.76105 42.156C9.08311 41.9051 9.11894 41.4034 8.92213 41.0539C8.72531 40.7044 8.33165 40.4894 7.93801 40.4087C7.54438 40.3281 7.13288 40.355 6.7303 40.3729C5.62992 40.4356 4.52059 40.4894 3.42021 40.4625C3.11604 40.4535 2.85658 40.3819 2.61503 40.6059C2.32875 40.8747 2.18561 41.493 2.10509 41.8604Z" fill="#63564B"/>
<path d="M8.71635 34.0915C8.77898 34.0915 8.84161 34.0915 8.89529 34.1184C8.98475 34.1632 9.01161 34.2797 9.0295 34.3782C9.11896 34.9069 9.12786 35.4625 9.0384 35.9911C9.02946 36.0539 9.0116 36.1166 8.96687 36.1435C8.93109 36.1704 8.87739 36.1704 8.83266 36.1704C7.05237 36.1256 5.26315 36.0808 3.48286 36.018C3.47391 35.6327 3.50074 35.2385 3.58126 34.8532C3.78702 33.8765 4.94108 34.1721 5.71045 34.1542C6.71242 34.1363 7.71438 34.1184 8.71635 34.0915Z" fill="#63564B"/>
<path d="M2.16776 32.622C2.16776 33.0701 2.18566 33.527 2.12304 33.9751C1.962 35.1848 1.25524 36.2511 0.48587 37.2099C0.781094 37.3264 1.08526 37.4428 1.38049 37.5593C1.56836 37.1292 1.74728 36.6991 1.93515 36.2779C2.11407 35.8568 2.30197 35.4267 2.41827 34.9787C2.56141 34.4231 2.58823 33.8497 2.62402 33.2762C2.6598 32.5952 3.16083 30.0952 2.65984 29.6382C2.02466 29.9249 2.1767 32.0038 2.16776 32.622Z" fill="#63564B"/>
<path d="M30.4198 48.0522C30.7776 48.3569 31.1534 48.6616 31.6007 48.796C32.048 48.9304 32.5937 48.8587 32.889 48.4913C33.2021 48.097 33.1305 47.5056 32.8532 47.0845C32.5759 46.6633 32.1375 46.3856 31.717 46.1168C32.0033 46.2243 32.2985 45.8658 32.2359 45.5701C32.1643 45.2655 31.8691 45.0773 31.5738 44.9877C31.2786 44.8981 30.9655 44.8802 30.6792 44.7637C30.4198 44.6652 30.0351 44.6113 29.8204 44.4411C28.89 43.7063 28.5232 43.2046 27.2886 42.0218C26.9397 41.6902 26.6355 41.3407 26.3135 40.9823C26.0898 40.7314 25.8841 40.4626 25.6247 40.2475C25.24 39.925 24.5959 39.8533 24.2291 39.5128C23.9338 39.244 23.6654 39.011 23.2449 39.1992C22.574 39.5128 22.6635 40.5074 22.9855 41.0271C23.5223 41.8784 24.4974 42.6221 25.2131 43.321C26.0183 44.1096 26.8413 44.8802 27.6733 45.6418C28.5679 46.4572 29.4894 47.2637 30.4198 48.0522Z" fill="#EDD5BE"/>
<path d="M22.5293 35.373C22.3235 35.14 22.1088 34.907 21.9836 34.6203C21.8404 34.2977 21.8136 33.9303 21.8225 33.563C21.8673 31.9949 22.5919 30.5074 23.2986 29.0647C23.728 28.1956 24.1575 27.3264 24.6764 26.5199C25.0342 25.9644 25.4815 25.1848 25.5978 24.5576C25.732 23.8317 25.8572 22.4339 25.7678 22.174C25.3115 20.8031 24.2201 19.6113 22.6992 19.6024C22.2698 19.6024 20.7042 20.1938 20.4001 20.5074C20.0422 20.8748 19.416 21.9321 18.9598 22.4249C18.8166 22.5862 18.745 22.7923 18.6735 22.9895C18.4767 23.5361 18.2888 24.0826 18.092 24.6292C17.8594 25.2744 17.6357 25.9196 17.4747 26.5827C17.2511 27.4787 17.1526 28.4016 17.1795 29.3067C17.2063 30.1131 16.92 31.3049 17.0453 32.0934C17.1705 32.8999 17.0632 33.9393 17.1884 34.7458C17.2779 35.3192 17.3674 35.8927 17.5821 36.4214C17.7878 36.9232 18.1098 37.3712 18.4409 37.8013C20.0422 39.8533 25.9736 44.5844 27.9149 46.3049L29.8115 44.1902C27.9686 42.8909 24.0412 37.0486 22.5293 35.373Z" fill="#E3E3E3"/>
<path d="M20.0333 3.75105C19.4786 4.19012 18.7629 4.3514 18.1367 4.66502C17.5105 4.97864 16.9111 5.59693 17.0184 6.29585C17.1526 7.15607 18.2887 7.66682 18.2619 8.536C18.253 8.84066 18.092 9.12739 18.0741 9.43205C18.0114 10.2295 18.915 10.8209 19.7112 10.7672C20.5074 10.7134 21.2052 10.2385 21.8941 9.81735C24.5153 8.22237 27.5481 7.34425 30.6077 7.25464C31.1176 7.23672 31.6544 7.24567 32.1106 7.02166C32.5758 6.8066 32.9426 6.27792 32.7994 5.78509C32.6026 5.08617 31.6365 4.96074 31.216 4.3783C30.9834 4.05572 30.9386 3.63455 30.7865 3.26717C30.5003 2.60409 29.8741 2.17398 29.2657 1.77971C28.0312 0.964297 26.725 0.130962 25.2578 0.0144741C23.9517 -0.0930528 22.5919 0.408756 21.5541 1.17937C20.6237 1.88725 20.9637 3.00732 20.0333 3.75105Z" fill="#D7C68E"/>
<defs>
<linearGradient id="paint0_linear_68_14" x1="60.7582" y1="96.769" x2="96.9726" y2="98.5523" gradientUnits="userSpaceOnUse">
<stop stop-color="#4D4D4D"/>
<stop offset="1"/>
</linearGradient>
<linearGradient id="paint1_linear_68_14" x1="60.7582" y1="96.769" x2="96.9726" y2="98.5523" gradientUnits="userSpaceOnUse">
<stop/>
<stop offset="1"/>
</linearGradient>
<linearGradient id="paint2_linear_68_14" x1="7.82913" y1="98.3146" x2="43.6898" y2="100.08" gradientUnits="userSpaceOnUse">
<stop stop-color="#4D4D4D"/>
<stop offset="1"/>
</linearGradient>
<linearGradient id="paint3_linear_68_14" x1="7.82913" y1="98.3146" x2="43.6898" y2="100.08" gradientUnits="userSpaceOnUse">
<stop/>
<stop offset="1"/>
</linearGradient>
</defs>
</svg>
