<svg width="62" height="80" viewBox="0 0 62 80" fill="none" xmlns="http://www.w3.org/2000/svg">
<g filter="url(#filter0_d_184_181)">
<path d="M4.9 9.6C6.2455 9.6 8.5 13.3572 8.5 15.6C8.5 15.9183 8.59482 16.2235 8.7636 16.4485C8.93239 16.6736 9.1613 16.8 9.4 16.8C9.63869 16.8 9.86761 16.6736 10.0364 16.4485C10.2052 16.2235 10.3 15.9183 10.3 15.6C10.3 13.3572 12.5545 9.6 13.9 9.6C14.1387 9.6 14.3676 9.47357 14.5364 9.24853C14.7052 9.02348 14.8 8.71826 14.8 8.4C14.8 8.08174 14.7052 7.77652 14.5364 7.55147C14.3676 7.32643 14.1387 7.2 13.9 7.2C12.5545 7.2 10.3 3.4428 10.3 1.2C10.3 0.88174 10.2052 0.576515 10.0364 0.351472C9.86761 0.126428 9.63869 0 9.4 0C9.1613 0 8.93239 0.126428 8.7636 0.351472C8.59482 0.576515 8.5 0.88174 8.5 1.2C8.5 3.4428 6.2455 7.2 4.9 7.2C4.66131 7.2 4.43239 7.32643 4.2636 7.55147C4.09482 7.77652 4 8.08174 4 8.4C4 8.71826 4.09482 9.02348 4.2636 9.24853C4.43239 9.47357 4.66131 9.6 4.9 9.6ZM9.4 4.9836C9.9679 6.2988 10.7545 7.5372 11.6167 8.4C10.7545 9.2628 9.9679 10.5012 9.4 11.8164C8.8321 10.5012 8.0455 9.2628 7.1833 8.4C8.0455 7.5372 8.8321 6.2988 9.4 4.9836ZM12.1 72C16.1257 72 20.2 70.3512 20.2 67.2V43.2C20.2 40.0488 16.1257 38.4 12.1 38.4C8.0743 38.4 4 40.0488 4 43.2V67.2C4 70.3512 8.0743 72 12.1 72ZM12.1 69.6C8.0077 69.6 5.8 67.8972 5.8 67.2V64.32C7.3624 65.4276 9.7366 66 12.1 66C14.4634 66 16.8376 65.4276 18.4 64.32V67.2C18.4 67.8972 16.1923 69.6 12.1 69.6ZM5.8 46.3284C8.9257 48.5376 15.2743 48.5376 18.4 46.3284V49.2C18.4 49.8972 16.1923 51.6 12.1 51.6C8.0077 51.6 5.8 49.8972 5.8 49.2V46.3284ZM5.8 58.3284C8.9257 60.5376 15.2743 60.5376 18.4 58.3284V61.2C18.4 61.8972 16.1923 63.6 12.1 63.6C8.0077 63.6 5.8 61.8972 5.8 61.2V58.3284ZM12.1 54C14.4634 54 16.8376 53.4276 18.4 52.32V55.2C18.4 55.8972 16.1923 57.6 12.1 57.6C8.0077 57.6 5.8 55.8972 5.8 55.2V52.32C7.3624 53.4276 9.7366 54 12.1 54ZM12.1 40.8C16.1923 40.8 18.4 42.5028 18.4 43.2C18.4 43.8972 16.1923 45.6 12.1 45.6C8.0077 45.6 5.8 43.8972 5.8 43.2C5.8 42.5028 8.0077 40.8 12.1 40.8ZM22.9 19.2V67.2C22.9 70.3512 26.9743 72 31 72C35.0257 72 39.1 70.3512 39.1 67.2V19.2C39.1 16.0488 35.0257 14.4 31 14.4C26.9743 14.4 22.9 16.0488 22.9 19.2ZM24.7 34.3284C27.8257 36.5376 34.1743 36.5376 37.3 34.3284V37.2C37.3 37.8972 35.0923 39.6 31 39.6C26.9077 39.6 24.7 37.8972 24.7 37.2V34.3284ZM24.7 46.3284C27.8257 48.5376 34.1743 48.5376 37.3 46.3284V49.2C37.3 49.8972 35.0923 51.6 31 51.6C26.9077 51.6 24.7 49.8972 24.7 49.2V46.3284ZM24.7 58.3284C27.8257 60.5376 34.1743 60.5376 37.3 58.3284V61.2C37.3 61.8972 35.0923 63.6 31 63.6C26.9077 63.6 24.7 61.8972 24.7 61.2V58.3284ZM37.3 55.2C37.3 55.8972 35.0923 57.6 31 57.6C26.9077 57.6 24.7 55.8972 24.7 55.2V52.32C26.2624 53.4276 28.6366 54 31 54C33.3634 54 35.7376 53.4276 37.3 52.32V55.2ZM37.3 43.2C37.3 43.8972 35.0923 45.6 31 45.6C26.9077 45.6 24.7 43.8972 24.7 43.2V40.32C26.2624 41.4276 28.6366 42 31 42C33.3634 42 35.7376 41.4276 37.3 40.32V43.2ZM37.3 31.2C37.3 31.8972 35.0923 33.6 31 33.6C26.9077 33.6 24.7 31.8972 24.7 31.2V28.32C26.2624 29.4276 28.6366 30 31 30C33.3634 30 35.7376 29.4276 37.3 28.32V31.2ZM37.3 25.2C37.3 25.8972 35.0923 27.6 31 27.6C26.9077 27.6 24.7 25.8972 24.7 25.2V22.3284C27.8257 24.5376 34.1743 24.5376 37.3 22.3284V25.2ZM31 69.6C26.9077 69.6 24.7 67.8972 24.7 67.2V64.32C26.2624 65.4276 28.6366 66 31 66C33.3634 66 35.7376 65.4276 37.3 64.32V67.2C37.3 67.8972 35.0923 69.6 31 69.6ZM37.3 19.2C37.3 19.8972 35.0923 21.6 31 21.6C26.9077 21.6 24.7 19.8972 24.7 19.2C24.7 18.5028 26.9077 16.8 31 16.8C35.0923 16.8 37.3 18.5028 37.3 19.2ZM41.8 7.2V67.2C41.8 70.3512 45.8743 72 49.9 72C53.9257 72 58 70.3512 58 67.2V7.2C58 4.0488 53.9257 2.4 49.9 2.4C45.8743 2.4 41.8 4.0488 41.8 7.2ZM43.6 22.3284C46.7257 24.5376 53.0743 24.5376 56.2 22.3284V25.2C56.2 25.8972 53.9923 27.6 49.9 27.6C45.8077 27.6 43.6 25.8972 43.6 25.2V22.3284ZM43.6 34.3284C46.7257 36.5376 53.0743 36.5376 56.2 34.3284V37.2C56.2 37.8972 53.9923 39.6 49.9 39.6C45.8077 39.6 43.6 37.8972 43.6 37.2V34.3284ZM43.6 46.3284C46.7257 48.5376 53.0743 48.5376 56.2 46.3284V49.2C56.2 49.8972 53.9923 51.6 49.9 51.6C45.8077 51.6 43.6 49.8972 43.6 49.2V46.3284ZM43.6 58.3284C46.7257 60.5376 53.0743 60.5376 56.2 58.3284V61.2C56.2 61.8972 53.9923 63.6 49.9 63.6C45.8077 63.6 43.6 61.8972 43.6 61.2V58.3284ZM56.2 55.2C56.2 55.8972 53.9923 57.6 49.9 57.6C45.8077 57.6 43.6 55.8972 43.6 55.2V52.32C45.1624 53.4276 47.5366 54 49.9 54C52.2634 54 54.6376 53.4276 56.2 52.32V55.2ZM56.2 43.2C56.2 43.8972 53.9923 45.6 49.9 45.6C45.8077 45.6 43.6 43.8972 43.6 43.2V40.32C45.1624 41.4276 47.5366 42 49.9 42C52.2634 42 54.6376 41.4276 56.2 40.32V43.2ZM56.2 31.2C56.2 31.8972 53.9923 33.6 49.9 33.6C45.8077 33.6 43.6 31.8972 43.6 31.2V28.32C45.1624 29.4276 47.5366 30 49.9 30C52.2634 30 54.6376 29.4276 56.2 28.32V31.2ZM56.2 19.2C56.2 19.8972 53.9923 21.6 49.9 21.6C45.8077 21.6 43.6 19.8972 43.6 19.2V16.32C45.1624 17.4276 47.5366 18 49.9 18C52.2634 18 54.6376 17.4276 56.2 16.32V19.2ZM56.2 13.2C56.2 13.8972 53.9923 15.6 49.9 15.6C45.8077 15.6 43.6 13.8972 43.6 13.2V10.3284C46.7257 12.5376 53.0743 12.5376 56.2 10.3284V13.2ZM49.9 69.6C45.8077 69.6 43.6 67.8972 43.6 67.2V64.32C45.1624 65.4276 47.5366 66 49.9 66C52.2634 66 54.6376 65.4276 56.2 64.32V67.2C56.2 67.8972 53.9923 69.6 49.9 69.6ZM56.2 7.2C56.2 7.8972 53.9923 9.6 49.9 9.6C45.8077 9.6 43.6 7.8972 43.6 7.2C43.6 6.5028 45.8077 4.8 49.9 4.8C53.9923 4.8 56.2 6.5028 56.2 7.2Z" fill="#174B91"/>
</g>
<defs>
<filter id="filter0_d_184_181" x="0" y="0" width="62" height="80" filterUnits="userSpaceOnUse" color-interpolation-filters="sRGB">
<feFlood flood-opacity="0" result="BackgroundImageFix"/>
<feColorMatrix in="SourceAlpha" type="matrix" values="0 0 0 0 0 0 0 0 0 0 0 0 0 0 0 0 0 0 127 0" result="hardAlpha"/>
<feOffset dy="4"/>
<feGaussianBlur stdDeviation="2"/>
<feComposite in2="hardAlpha" operator="out"/>
<feColorMatrix type="matrix" values="0 0 0 0 0 0 0 0 0 0 0 0 0 0 0 0 0 0 0.25 0"/>
<feBlend mode="normal" in2="BackgroundImageFix" result="effect1_dropShadow_184_181"/>
<feBlend mode="normal" in="SourceGraphic" in2="effect1_dropShadow_184_181" result="shape"/>
</filter>
</defs>
</svg>
