<svg width="40" height="38" viewBox="0 0 40 38" fill="none" xmlns="http://www.w3.org/2000/svg">
<g clip-path="url(#clip0_136_70)">
<path d="M1.12781 0.0927726C1.00392 0.0329822 0.839185 3.64795e-05 0.663671 0C0.301997 0 0.00766767 0.141904 0.00752288 0.316325C0.00748074 0.372079 0.0376868 0.426504 0.0951005 0.474477L0.00201416 0.6384L0.349846 0.594413C0.44568 0.619619 0.553583 0.632902 0.663389 0.632923H0.663668H0.663671C1.02529 0.632923 1.31966 0.490994 1.31981 0.316581C1.31987 0.232049 1.25168 0.152567 1.12781 0.0927726ZM0.663671 0.579494H0.663458C0.565583 0.57947 0.469602 0.566796 0.385885 0.542838L0.365961 0.537142L0.159551 0.563242L0.21466 0.466219L0.201679 0.456272C0.147083 0.414406 0.118261 0.366025 0.118302 0.316345C0.118422 0.171372 0.363058 0.0534305 0.663877 0.0534305C0.80955 0.0534597 0.946465 0.0808444 1.04944 0.13054C1.1524 0.180236 1.20907 0.246299 1.20902 0.316559C1.2089 0.461536 0.964252 0.579494 0.663671 0.579494Z" fill="#E0E0E0"/>
<path d="M0.915497 36.9174L3.61177 27.6058C1.94834 24.8807 1.07358 21.7889 1.07463 18.6224C1.07899 8.71466 9.60439 0.654053 20.0794 0.654053C25.1635 0.656224 29.9352 2.5276 33.5228 5.92407C37.1113 9.32051 39.0863 13.8351 39.0842 18.6364C39.0799 28.5444 30.5539 36.6057 20.0802 36.6057C20.0794 36.6057 20.0807 36.6057 20.0802 36.6057H20.0717C16.8912 36.6048 13.766 35.8496 10.9903 34.4188L0.915497 36.9174Z" fill="url(#paint0_linear_136_70)"/>
<path fill-rule="evenodd" clip-rule="evenodd" d="M15.1624 10.835C14.794 10.0603 14.4061 10.0447 14.0555 10.0312C13.7688 10.0196 13.4406 10.0203 13.1129 10.0203C12.7849 10.0203 12.252 10.1368 11.8013 10.6024C11.3503 11.0679 10.0794 12.1934 10.0794 14.4823C10.0794 16.7715 11.8423 18.9834 12.088 19.294C12.334 19.6042 15.4909 24.4516 20.4907 26.3164C24.6459 27.8662 25.4914 27.558 26.3934 27.4804C27.2953 27.4029 29.3036 26.3552 29.7135 25.2688C30.1235 24.1826 30.1235 23.2515 30.0005 23.0569C29.8775 22.863 29.5495 22.7467 29.0576 22.514C28.5656 22.2814 26.1474 21.1557 25.6964 21.0006C25.2455 20.8455 24.9175 20.768 24.5895 21.2338C24.2616 21.6991 23.3194 22.7467 23.0324 23.0569C22.7455 23.3678 22.4585 23.4066 21.9665 23.1739C21.4746 22.9406 19.8903 22.4498 18.0109 20.8649C16.5486 19.6318 15.5614 18.1089 15.2744 17.6432C14.9874 17.1779 15.2436 16.9258 15.4904 16.6939C15.7113 16.4855 15.9824 16.1508 16.2283 15.8791C16.4738 15.6074 16.5558 15.4136 16.7198 15.1034C16.8838 14.7927 16.8018 14.521 16.6788 14.2884C16.5558 14.0557 15.5998 11.755 15.1624 10.835Z" fill="white"/>
<path d="M34.0084 5.46271C30.2913 1.94461 25.3487 0.00610867 20.0828 0.00390625C9.23133 0.00390625 0.400491 8.35362 0.396129 18.6166C0.39485 21.8973 1.30113 25.0996 3.02372 27.9224L0.230865 37.5677L10.6669 34.9794C13.5423 36.4625 16.7797 37.2441 20.0743 37.2453H20.0827H20.0828C30.9324 37.2453 39.7645 28.8942 39.7691 18.6316C39.7709 13.6578 37.7249 8.98106 34.0084 5.46271ZM20.0828 34.1017H20.0764C17.1398 34.1002 14.26 33.3545 11.7482 31.9448L11.1504 31.6097L4.95746 33.1454L6.61089 27.4365L6.22142 26.8512C4.58338 24.3878 3.71862 21.541 3.7199 18.6179C3.72348 10.0876 11.0633 3.14785 20.0889 3.14785C24.4596 3.14955 28.5674 4.76088 31.657 7.68502C34.7463 10.6091 36.4464 14.4963 36.4451 18.6305C36.4412 27.161 29.1011 34.1017 20.0828 34.1017Z" fill="white"/>
</g>
<defs>
<linearGradient id="paint0_linear_136_70" x1="19.9999" y1="36.9174" x2="19.9999" y2="0.654113" gradientUnits="userSpaceOnUse">
<stop stop-color="#20B038"/>
<stop offset="1" stop-color="#60D66A"/>
</linearGradient>
<clipPath id="clip0_136_70">
<rect width="40" height="38" fill="white"/>
</clipPath>
</defs>
</svg>
