<svg width="67" height="102" viewBox="0 0 67 102" fill="none" xmlns="http://www.w3.org/2000/svg">
<path d="M61.1317 66.5829H40.2172V99.3706H61.1317V66.5829Z" fill="#B2B2B2"/>
<path d="M40.2988 66.5829H19.3843V99.3706H40.2988V66.5829Z" fill="#D1D1D1"/>
<path d="M29.3414 26.822L28.4498 44.4464L24.2574 57.3705H31.8051L35.7253 46.2351L36.9503 33.58L29.3414 26.822Z" fill="#F7EBE7"/>
<path d="M29.1304 88.4235L30.6481 95.41L25.5505 96.0085L24.1008 89.1295L29.1304 88.4235Z" fill="#FCC9A7"/>
<path d="M30.9544 94.7778C30.8251 94.4013 30.4167 94.2668 30.1377 94.5089C29.5932 94.9863 28.6132 95.5713 27.1635 95.4301C25.6594 95.2822 25.0945 94.408 24.8768 93.7759C24.7611 93.4464 24.4412 93.2783 24.1553 93.4195L15.0286 97.9517C14.4773 98.2274 14.0418 98.7385 13.824 99.3773C13.6198 99.9757 14.0282 100.621 14.5999 100.608L30.3691 100.177C30.9885 100.164 31.4648 99.5588 31.4104 98.8595L31.1518 95.4301C31.145 95.3763 31.1382 95.3158 31.1177 95.262L30.9544 94.7778Z" fill="#1F252A"/>
<path d="M29.0419 54.6405H17.2064C17.2064 54.6405 9.99899 54.2438 9.57022 60.0872C9.14145 65.9306 20.1398 82.6473 21.8617 91.5771L31.7574 90.7702L24.6317 66.4888L42.3542 66.5896C43.6678 66.5963 44.9745 66.4081 46.2131 65.9844C49.6637 64.801 54.9315 63.1064 52.0594 53.7193L29.0419 54.6405Z" fill="#092330"/>
<path d="M38.1754 88.4503L40.5847 96.8019L35.487 97.4004L33.1458 89.1564L38.1754 88.4503Z" fill="#FCC9A7"/>
<path d="M40.8909 96.1698C40.7616 95.7933 40.3533 95.6588 40.0742 95.9008C39.5298 96.3783 38.5497 96.9633 37.1001 96.8221C35.596 96.6741 35.031 95.8 34.8133 95.1679C34.6976 94.8384 34.3777 94.6703 34.0918 94.8115L24.9652 99.3437C24.4139 99.6194 23.9783 100.13 23.7605 100.769C23.5563 101.368 23.9647 102.013 24.5364 102L40.5779 101.569C41.1972 101.556 41.6736 100.951 41.6192 100.251L41.0815 96.8221C41.0747 96.7683 41.0679 96.7078 41.0475 96.654L40.8909 96.1698Z" fill="#1F252A"/>
<path d="M43.1845 19.8961C43.4499 20.1516 55.3262 23.1439 55.3262 23.1439L52.7877 29.8077L39.802 28.8394L43.1845 19.8961Z" fill="#F7EBE7"/>
<path d="M38.2843 21.5031C38.2843 21.5031 30.546 24.2937 29.3413 26.822C29.7565 30.3926 31.0292 33.8288 33.1254 36.7673C35.698 40.3715 38.8764 46.5646 38.2911 54.6405H60.6621C60.6621 54.6405 59.4574 31.9191 52.8353 23.1976L38.2843 21.5031Z" fill="#F7EBE7"/>
<path d="M40.8229 25.1074C43.0212 24.6636 44.4369 22.5454 43.9877 20.3735L42.6741 14.019L34.718 15.6261L36.0316 21.9806C36.4808 24.1525 38.6246 25.5512 40.8229 25.1074Z" fill="#FCC9A7"/>
<path d="M43.2185 16.238C43.2185 16.238 42.3814 21.3888 38.3251 21.6981C34.7724 21.9671 35.1127 16.8902 35.1127 16.8902L43.2185 16.238Z" fill="#F4BE9A"/>
<path d="M38.645 18.874L39.346 18.7126C42.8647 17.9057 45.0562 14.4359 44.2394 10.9662L43.3138 7.00557C42.4971 3.5291 38.9853 1.36387 35.4734 2.17079L34.7724 2.33217C31.2538 3.13909 29.0623 6.60883 29.879 10.0786L30.8046 14.0392C31.6213 17.5157 35.1331 19.6809 38.645 18.874Z" fill="#FCC9A7"/>
<path d="M42.0343 12.6136C41.871 12.8893 41.7144 13.3062 41.66 13.9383C41.5987 14.7385 41.1904 15.4983 40.5098 15.9421C38.5565 17.2198 37.066 13.9854 34.1803 14.5569C34.1803 14.5569 33.0505 14.725 32.8259 15.969C32.6014 17.2063 31.0292 15.0411 30.6821 13.5617C30.335 12.0824 30.158 20.8845 37.2634 20.1381C37.2634 20.1381 40.8501 20.0238 43.2662 16.4128C43.5316 16.0161 43.6881 15.5521 43.7017 15.0747C43.7222 14.3687 43.6201 13.2995 42.9395 12.5329C42.7013 12.2505 42.2249 12.2908 42.0343 12.6136Z" fill="#1C2226"/>
<path d="M42.0411 10.6165C42.0411 10.6165 38.9717 9.61455 39.4889 5.18323C39.4889 5.18323 31.8663 12.311 26.2174 7.07948C26.2174 7.07948 28.7424 6.41378 29.7837 4.70581C31.6826 1.59245 37.1409 -2.69765 41.5103 2.26488C41.5103 2.26488 46.8257 1.45124 45.3012 9.54058L42.0411 10.6165Z" fill="#1C2226"/>
<path d="M42.0411 10.6164C42.3338 11.8537 43.5861 12.627 44.8384 12.3446C46.0974 12.0554 46.8733 10.8181 46.5874 9.58087C46.2948 8.3436 45.0425 7.5703 43.7902 7.85272C42.5311 8.14187 41.7484 9.37914 42.0411 10.6164Z" fill="#FCC9A7"/>
<path d="M38.1618 24.8585L41.449 24.919L39.1486 29.6261L36.6645 25.114L38.1618 24.8585Z" fill="#0C2C40"/>
<path d="M44.2667 20.1044L40.0334 24.9863L42.7898 28.1131L47.8602 21.2274C47.8602 21.2274 46.5602 19.163 44.2667 20.1044Z" fill="#FFF7F3"/>
<path d="M38.1618 24.8586L35.7253 27.5752L34.0102 23.3389C34.0102 23.3389 34.4594 21.4359 35.8614 21.799L38.1618 24.8586Z" fill="#FFF7F3"/>
<path d="M39.0601 28.1064C39.0601 28.1064 35.8818 36.2966 36.6713 47.9162L39.802 50.7404L43.4567 47.264L39.5161 27.5752L39.0601 28.1064Z" fill="#0C2C40"/>
<path d="M45.0017 47.5531L38.1958 49.7654L37.7466 53.7126L46.7712 51.0497L45.0017 47.5531Z" fill="#FCC9A7"/>
<path d="M39.2099 52.3744C39.2099 54.6809 37.3178 56.5569 34.9766 56.5569C32.6422 56.5569 30.7433 54.6876 30.7433 52.3744C30.7433 50.068 32.6354 48.1919 34.9766 48.1919C37.311 48.1919 39.2099 50.0613 39.2099 52.3744Z" fill="#FCC9A7"/>
<path d="M38.2843 54.6405H26.4557C26.4557 54.6405 19.2482 54.2437 18.8195 60.0872C18.3907 65.9306 30.1989 83.7231 31.9208 92.6463L41.8166 91.8393L33.8809 66.482L51.6035 66.5828C52.917 66.5896 54.2237 66.4013 55.4624 65.9777C58.913 64.7942 64.1807 63.0997 61.3086 53.7125L38.2843 54.6405Z" fill="#0C2C40"/>
<path d="M2.60098 33.9767H23.0527C23.7265 33.9767 24.305 34.4407 24.4479 35.0929L28.3 52.9392C28.4906 53.8134 27.81 54.6405 26.9048 54.6405H6.11283C5.43224 54.6405 4.84694 54.1631 4.71763 53.5041L1.20578 35.6578C1.02883 34.7836 1.7026 33.9767 2.60098 33.9767Z" fill="#B2B2B2"/>
<path d="M1.42355 33.9767H21.8685C22.5422 33.9767 23.1208 34.4407 23.2637 35.0929L27.1158 52.9392C27.3064 53.8134 26.6326 54.6405 25.7206 54.6405H4.9354C4.25481 54.6405 3.66951 54.1631 3.5402 53.5041L0.0283531 35.6578C-0.1486 34.7836 0.525175 33.9767 1.42355 33.9767Z" fill="#D1D1D1"/>
<path d="M27.742 53.1141H41.7145C42.1432 53.1141 42.4835 53.4571 42.4835 53.874C42.4835 54.2976 42.1364 54.6338 41.7145 54.6338H27.4697L27.742 53.1141Z" fill="#B2B2B2"/>
<path d="M14.0825 43.8412C14.0825 45.0583 13.0889 46.0401 11.857 46.0401C10.6251 46.0401 9.63147 45.0516 9.63147 43.8412C9.63147 42.6241 10.6319 41.6424 11.857 41.6424C13.0889 41.6424 14.0825 42.6241 14.0825 43.8412Z" fill="white"/>
<path d="M50.4464 29.4916L57.9193 41.4138L40.0334 47.7212L42.4835 52.9527C42.4835 52.9527 57.7764 51.2582 65.1676 45.63C65.8482 45.1122 66.1884 44.2717 66.0727 43.4311C65.7256 40.7414 64.242 34.2121 57.9193 24.9326C56.633 23.043 54.0739 22.4715 52.0798 23.6146C50.004 24.7981 49.2758 27.4205 50.4464 29.4916Z" fill="#F7EBE7"/>
<path d="M44.7907 46.0401L57.9193 41.4138L51.3516 30.9306" stroke="#EADDD8" stroke-width="0.7599" stroke-miterlimit="10" stroke-linecap="round" stroke-linejoin="round"/>
<path d="M35.9022 42.093L32.6694 33.6607" stroke="#EADDD8" stroke-width="0.7599" stroke-miterlimit="10" stroke-linecap="round" stroke-linejoin="round"/>
<path d="M45.0017 52.5963C45.0017 52.5963 55.0472 51.3523 60.1108 48.4878" stroke="#EADDD8" stroke-width="0.7599" stroke-miterlimit="10" stroke-linecap="round" stroke-linejoin="round"/>
</svg>
